<?xml version="1.0" encoding="utf-8"?>
<!-- Generator: Adobe Illustrator 16.0.4, SVG Export Plug-In . SVG Version: 6.00 Build 0)  -->
<!DOCTYPE svg PUBLIC "-//W3C//DTD SVG 1.1//EN" "http://www.w3.org/Graphics/SVG/1.1/DTD/svg11.dtd">
<svg version="1.1" id="Ebene_2" xmlns="http://www.w3.org/2000/svg" xmlns:xlink="http://www.w3.org/1999/xlink" x="0px" y="0px"
	 width="800px" height="600px" viewBox="0 0 800 600" enable-background="new 0 0 800 600" xml:space="preserve">
<rect x="-0.5" y="-0.5" fill="#2C3E50" stroke="#2C3E50" stroke-miterlimit="10" width="39" height="39"/>
<rect x="-0.5" y="38.5" fill="#2C3E50" stroke="#2C3E50" stroke-miterlimit="10" width="39" height="41"/>
<rect x="-0.5" y="79.5" fill="#2C3E50" stroke="#2C3E50" stroke-miterlimit="10" width="39" height="39"/>
<rect x="-0.5" y="118.5" fill="#2C3E50" stroke="#2C3E50" stroke-miterlimit="10" width="39" height="41"/>
<rect x="-0.5" y="159.5" fill="#2C3E50" stroke="#2C3E50" stroke-miterlimit="10" width="39" height="39"/>
<rect x="-0.5" y="198.5" fill="#2C3E50" stroke="#2C3E50" stroke-miterlimit="10" width="39" height="41"/>
<rect x="-0.5" y="239.5" fill="#2C3E50" stroke="#2C3E50" stroke-miterlimit="10" width="39" height="40"/>
<rect x="-0.5" y="279.5" fill="#2C3E50" stroke="#2C3E50" stroke-miterlimit="10" width="39" height="40"/>
<rect x="-0.5" y="319.5" fill="#2C3E50" stroke="#2C3E50" stroke-miterlimit="10" width="39" height="40"/>
<rect x="-0.5" y="359.5" fill="#2C3E50" stroke="#2C3E50" stroke-miterlimit="10" width="39" height="40"/>
<rect x="-0.5" y="399.5" fill="#2C3E50" stroke="#2C3E50" stroke-miterlimit="10" width="39" height="40"/>
<rect x="-0.5" y="439.5" fill="#2C3E50" stroke="#2C3E50" stroke-miterlimit="10" width="39" height="40"/>
<rect x="-0.5" y="479.5" fill="#2C3E50" stroke="#2C3E50" stroke-miterlimit="10" width="39" height="40"/>
<rect x="-0.5" y="519.5" fill="#2C3E50" stroke="#2C3E50" stroke-miterlimit="10" width="39" height="40"/>
<rect x="-0.5" y="559.5" fill="#2C3E50" stroke="#2C3E50" stroke-miterlimit="10" width="39" height="40"/>
<rect x="38.5" y="-0.5" fill="#2C3E50" stroke="#2C3E50" stroke-miterlimit="10" width="41" height="39"/>
<rect x="38.5" y="159.5" fill="#2C3E50" stroke="#2C3E50" stroke-miterlimit="10" width="41" height="39"/>
<rect x="38.5" y="198.5" fill="#2C3E50" stroke="#2C3E50" stroke-miterlimit="10" width="41" height="41"/>
<rect x="38.5" y="359.5" fill="#2C3E50" stroke="#2C3E50" stroke-miterlimit="10" width="41" height="40"/>
<rect x="38.5" y="439.5" fill="#2C3E50" stroke="#2C3E50" stroke-miterlimit="10" width="41" height="40"/>
<rect x="38.5" y="479.5" fill="#2C3E50" stroke="#2C3E50" stroke-miterlimit="10" width="41" height="40"/>
<rect x="38.5" y="559.5" fill="#2C3E50" stroke="#2C3E50" stroke-miterlimit="10" width="41" height="40"/>
<rect x="79.5" y="-0.5" fill="#2C3E50" stroke="#2C3E50" stroke-miterlimit="10" width="39" height="39"/>
<rect x="79.5" y="79.5" fill="#2C3E50" stroke="#2C3E50" stroke-miterlimit="10" width="39" height="39"/>
<rect x="79.5" y="159.5" fill="#2C3E50" stroke="#2C3E50" stroke-miterlimit="10" width="39" height="39"/>
<rect x="79.5" y="198.5" fill="#2C3E50" stroke="#2C3E50" stroke-miterlimit="10" width="39" height="41"/>
<rect x="79.5" y="279.5" fill="#2C3E50" stroke="#2C3E50" stroke-miterlimit="10" width="39" height="40"/>
<rect x="79.5" y="359.5" fill="#2C3E50" stroke="#2C3E50" stroke-miterlimit="10" width="39" height="40"/>
<rect x="79.5" y="559.5" fill="#2C3E50" stroke="#2C3E50" stroke-miterlimit="10" width="39" height="40"/>
<rect x="118.5" y="-0.5" fill="#2C3E50" stroke="#2C3E50" stroke-miterlimit="10" width="41" height="39"/>
<rect x="118.5" y="79.5" fill="#2C3E50" stroke="#2C3E50" stroke-miterlimit="10" width="41" height="39"/>
<rect x="118.5" y="198.5" fill="#2C3E50" stroke="#2C3E50" stroke-miterlimit="10" width="41" height="41"/>
<rect x="118.5" y="239.5" fill="#2C3E50" stroke="#2C3E50" stroke-miterlimit="10" width="41" height="40"/>
<rect x="118.5" y="279.5" fill="#2C3E50" stroke="#2C3E50" stroke-miterlimit="10" width="41" height="40"/>
<rect x="118.5" y="359.5" fill="#2C3E50" stroke="#2C3E50" stroke-miterlimit="10" width="41" height="40"/>
<rect x="118.5" y="399.5" fill="#2C3E50" stroke="#2C3E50" stroke-miterlimit="10" width="41" height="40"/>
<rect x="118.5" y="439.5" fill="#2C3E50" stroke="#2C3E50" stroke-miterlimit="10" width="41" height="40"/>
<rect x="118.5" y="519.5" fill="#2C3E50" stroke="#2C3E50" stroke-miterlimit="10" width="41" height="40"/>
<rect x="118.5" y="559.5" fill="#2C3E50" stroke="#2C3E50" stroke-miterlimit="10" width="41" height="40"/>
<rect x="159.5" y="-0.5" fill="#2C3E50" stroke="#2C3E50" stroke-miterlimit="10" width="40" height="39"/>
<rect x="159.5" y="79.5" fill="#2C3E50" stroke="#2C3E50" stroke-miterlimit="10" width="40" height="39"/>
<rect x="159.5" y="118.5" fill="#2C3E50" stroke="#2C3E50" stroke-miterlimit="10" width="40" height="41"/>
<rect x="159.5" y="279.5" fill="#2C3E50" stroke="#2C3E50" stroke-miterlimit="10" width="40" height="40"/>
<rect x="159.5" y="359.5" fill="#2C3E50" stroke="#2C3E50" stroke-miterlimit="10" width="40" height="40"/>
<rect x="159.5" y="519.5" fill="#2C3E50" stroke="#2C3E50" stroke-miterlimit="10" width="40" height="40"/>
<rect x="159.5" y="559.5" fill="#2C3E50" stroke="#2C3E50" stroke-miterlimit="10" width="40" height="40"/>
<rect x="199.5" y="-0.5" fill="#2C3E50" stroke="#2C3E50" stroke-miterlimit="10" width="40" height="39"/>
<rect x="199.5" y="79.5" fill="#2C3E50" stroke="#2C3E50" stroke-miterlimit="10" width="40" height="39"/>
<rect x="199.5" y="198.5" fill="#2C3E50" stroke="#2C3E50" stroke-miterlimit="10" width="40" height="41"/>
<rect x="199.5" y="279.5" fill="#2C3E50" stroke="#2C3E50" stroke-miterlimit="10" width="40" height="40"/>
<rect x="199.5" y="439.5" fill="#2C3E50" stroke="#2C3E50" stroke-miterlimit="10" width="40" height="40"/>
<rect x="199.5" y="479.5" fill="#2C3E50" stroke="#2C3E50" stroke-miterlimit="10" width="40" height="40"/>
<rect x="199.5" y="519.5" fill="#2C3E50" stroke="#2C3E50" stroke-miterlimit="10" width="40" height="40"/>
<rect x="199.5" y="559.5" fill="#2C3E50" stroke="#2C3E50" stroke-miterlimit="10" width="40" height="40"/>
<rect x="239.5" y="-0.5" fill="#2C3E50" stroke="#2C3E50" stroke-miterlimit="10" width="40" height="39"/>
<rect x="239.5" y="79.5" fill="#2C3E50" stroke="#2C3E50" stroke-miterlimit="10" width="40" height="39"/>
<rect x="239.5" y="118.5" fill="#2C3E50" stroke="#2C3E50" stroke-miterlimit="10" width="40" height="41"/>
<rect x="239.5" y="159.5" fill="#2C3E50" stroke="#2C3E50" stroke-miterlimit="10" width="40" height="39"/>
<rect x="239.5" y="198.5" fill="#2C3E50" stroke="#2C3E50" stroke-miterlimit="10" width="40" height="41"/>
<rect x="239.5" y="279.5" fill="#2C3E50" stroke="#2C3E50" stroke-miterlimit="10" width="40" height="40"/>
<rect x="239.5" y="359.5" fill="#2C3E50" stroke="#2C3E50" stroke-miterlimit="10" width="40" height="40"/>
<rect x="239.5" y="559.5" fill="#2C3E50" stroke="#2C3E50" stroke-miterlimit="10" width="40" height="40"/>
<rect x="279.5" y="-0.5" fill="#2C3E50" stroke="#2C3E50" stroke-miterlimit="10" width="40" height="39"/>
<rect x="279.5" y="118.5" fill="#2C3E50" stroke="#2C3E50" stroke-miterlimit="10" width="40" height="41"/>
<rect x="279.5" y="279.5" fill="#2C3E50" stroke="#2C3E50" stroke-miterlimit="10" width="40" height="40"/>
<rect x="279.5" y="359.5" fill="#2C3E50" stroke="#2C3E50" stroke-miterlimit="10" width="40" height="40"/>
<rect x="279.5" y="439.5" fill="#2C3E50" stroke="#2C3E50" stroke-miterlimit="10" width="40" height="40"/>
<rect x="279.5" y="479.5" fill="#2C3E50" stroke="#2C3E50" stroke-miterlimit="10" width="40" height="40"/>
<rect x="279.5" y="559.5" fill="#2C3E50" stroke="#2C3E50" stroke-miterlimit="10" width="40" height="40"/>
<rect x="319.5" y="-0.5" fill="#2C3E50" stroke="#2C3E50" stroke-miterlimit="10" width="40" height="39"/>
<rect x="319.5" y="38.5" fill="#2C3E50" stroke="#2C3E50" stroke-miterlimit="10" width="40" height="41"/>
<rect x="319.5" y="118.5" fill="#2C3E50" stroke="#2C3E50" stroke-miterlimit="10" width="40" height="41"/>
<rect x="319.5" y="198.5" fill="#2C3E50" stroke="#2C3E50" stroke-miterlimit="10" width="40" height="41"/>
<rect x="319.5" y="239.5" fill="#2C3E50" stroke="#2C3E50" stroke-miterlimit="10" width="40" height="40"/>
<rect x="319.5" y="279.5" fill="#2C3E50" stroke="#2C3E50" stroke-miterlimit="10" width="40" height="40"/>
<rect x="319.5" y="359.5" fill="#2C3E50" stroke="#2C3E50" stroke-miterlimit="10" width="40" height="40"/>
<rect x="319.5" y="479.5" fill="#2C3E50" stroke="#2C3E50" stroke-miterlimit="10" width="40" height="40"/>
<rect x="319.5" y="559.5" fill="#2C3E50" stroke="#2C3E50" stroke-miterlimit="10" width="40" height="40"/>
<rect x="359.5" y="-0.5" fill="#2C3E50" stroke="#2C3E50" stroke-miterlimit="10" width="40" height="39"/>
<rect x="359.5" y="118.5" fill="#2C3E50" stroke="#2C3E50" stroke-miterlimit="10" width="40" height="41"/>
<rect x="359.5" y="159.5" fill="#2C3E50" stroke="#2C3E50" stroke-miterlimit="10" width="40" height="39"/>
<rect x="359.5" y="198.5" fill="#2C3E50" stroke="#2C3E50" stroke-miterlimit="10" width="40" height="41"/>
<rect x="359.5" y="359.5" fill="#2C3E50" stroke="#2C3E50" stroke-miterlimit="10" width="40" height="40"/>
<rect x="359.5" y="439.5" fill="#2C3E50" stroke="#2C3E50" stroke-miterlimit="10" width="40" height="40"/>
<rect x="359.5" y="479.5" fill="#2C3E50" stroke="#2C3E50" stroke-miterlimit="10" width="40" height="40"/>
<rect x="359.5" y="559.5" fill="#2C3E50" stroke="#2C3E50" stroke-miterlimit="10" width="40" height="40"/>
<rect x="399.5" y="-0.5" fill="#2C3E50" stroke="#2C3E50" stroke-miterlimit="10" width="40" height="39"/>
<rect x="399.5" y="79.5" fill="#2C3E50" stroke="#2C3E50" stroke-miterlimit="10" width="40" height="39"/>
<rect x="399.5" y="118.5" fill="#2C3E50" stroke="#2C3E50" stroke-miterlimit="10" width="40" height="41"/>
<rect x="399.5" y="279.5" fill="#2C3E50" stroke="#2C3E50" stroke-miterlimit="10" width="40" height="40"/>
<rect x="399.5" y="359.5" fill="#2C3E50" stroke="#2C3E50" stroke-miterlimit="10" width="40" height="40"/>
<rect x="399.5" y="439.5" fill="#2C3E50" stroke="#2C3E50" stroke-miterlimit="10" width="40" height="40"/>
<rect x="399.5" y="479.5" fill="#2C3E50" stroke="#2C3E50" stroke-miterlimit="10" width="40" height="40"/>
<rect x="399.5" y="559.5" fill="#2C3E50" stroke="#2C3E50" stroke-miterlimit="10" width="40" height="40"/>
<rect x="439.5" y="-0.5" fill="#2C3E50" stroke="#2C3E50" stroke-miterlimit="10" width="41" height="39"/>
<rect x="439.5" y="118.5" fill="#2C3E50" stroke="#2C3E50" stroke-miterlimit="10" width="41" height="41"/>
<rect x="439.5" y="198.5" fill="#2C3E50" stroke="#2C3E50" stroke-miterlimit="10" width="41" height="41"/>
<rect x="439.5" y="279.5" fill="#2C3E50" stroke="#2C3E50" stroke-miterlimit="10" width="41" height="40"/>
<rect x="439.5" y="359.5" fill="#2C3E50" stroke="#2C3E50" stroke-miterlimit="10" width="41" height="40"/>
<rect x="439.5" y="439.5" fill="#2C3E50" stroke="#2C3E50" stroke-miterlimit="10" width="41" height="40"/>
<rect x="439.5" y="559.5" fill="#2C3E50" stroke="#2C3E50" stroke-miterlimit="10" width="41" height="40"/>
<rect x="480.5" y="-0.5" fill="#2C3E50" stroke="#2C3E50" stroke-miterlimit="10" width="39" height="39"/>
<rect x="480.5" y="38.5" fill="#2C3E50" stroke="#2C3E50" stroke-miterlimit="10" width="39" height="41"/>
<rect x="480.5" y="118.5" fill="#2C3E50" stroke="#2C3E50" stroke-miterlimit="10" width="39" height="41"/>
<rect x="480.5" y="279.5" fill="#2C3E50" stroke="#2C3E50" stroke-miterlimit="10" width="39" height="40"/>
<rect x="480.5" y="359.5" fill="#2C3E50" stroke="#2C3E50" stroke-miterlimit="10" width="39" height="40"/>
<rect x="480.5" y="439.5" fill="#2C3E50" stroke="#2C3E50" stroke-miterlimit="10" width="39" height="40"/>
<rect x="480.5" y="519.5" fill="#2C3E50" stroke="#2C3E50" stroke-miterlimit="10" width="39" height="40"/>
<rect x="480.5" y="559.5" fill="#2C3E50" stroke="#2C3E50" stroke-miterlimit="10" width="39" height="40"/>
<rect x="519.5" y="-0.5" fill="#2C3E50" stroke="#2C3E50" stroke-miterlimit="10" width="41" height="39"/>
<rect x="519.5" y="118.5" fill="#2C3E50" stroke="#2C3E50" stroke-miterlimit="10" width="41" height="41"/>
<rect x="519.5" y="198.5" fill="#2C3E50" stroke="#2C3E50" stroke-miterlimit="10" width="41" height="41"/>
<rect x="519.5" y="239.5" fill="#2C3E50" stroke="#2C3E50" stroke-miterlimit="10" width="41" height="40"/>
<rect x="519.5" y="279.5" fill="#2C3E50" stroke="#2C3E50" stroke-miterlimit="10" width="41" height="40"/>
<rect x="519.5" y="559.5" fill="#2C3E50" stroke="#2C3E50" stroke-miterlimit="10" width="41" height="40"/>
<rect x="560.5" y="-0.5" fill="#2C3E50" stroke="#2C3E50" stroke-miterlimit="10" width="39" height="39"/>
<rect x="560.5" y="79.5" fill="#2C3E50" stroke="#2C3E50" stroke-miterlimit="10" width="39" height="39"/>
<rect x="560.5" y="118.5" fill="#2C3E50" stroke="#2C3E50" stroke-miterlimit="10" width="39" height="41"/>
<rect x="560.5" y="279.5" fill="#2C3E50" stroke="#2C3E50" stroke-miterlimit="10" width="39" height="40"/>
<rect x="560.5" y="359.5" fill="#2C3E50" stroke="#2C3E50" stroke-miterlimit="10" width="39" height="40"/>
<rect x="560.5" y="439.5" fill="#2C3E50" stroke="#2C3E50" stroke-miterlimit="10" width="39" height="40"/>
<rect x="560.5" y="479.5" fill="#2C3E50" stroke="#2C3E50" stroke-miterlimit="10" width="39" height="40"/>
<rect x="560.5" y="559.5" fill="#2C3E50" stroke="#2C3E50" stroke-miterlimit="10" width="39" height="40"/>
<rect x="599.5" y="-0.5" fill="#2C3E50" stroke="#2C3E50" stroke-miterlimit="10" width="41" height="39"/>
<rect x="599.5" y="118.5" fill="#2C3E50" stroke="#2C3E50" stroke-miterlimit="10" width="41" height="41"/>
<rect x="599.5" y="198.5" fill="#2C3E50" stroke="#2C3E50" stroke-miterlimit="10" width="41" height="41"/>
<rect x="599.5" y="279.5" fill="#2C3E50" stroke="#2C3E50" stroke-miterlimit="10" width="41" height="40"/>
<rect x="599.5" y="359.5" fill="#2C3E50" stroke="#2C3E50" stroke-miterlimit="10" width="41" height="40"/>
<rect x="599.5" y="479.5" fill="#2C3E50" stroke="#2C3E50" stroke-miterlimit="10" width="41" height="40"/>
<rect x="599.5" y="559.5" fill="#2C3E50" stroke="#2C3E50" stroke-miterlimit="10" width="41" height="40"/>
<rect x="640.5" y="-0.5" fill="#2C3E50" stroke="#2C3E50" stroke-miterlimit="10" width="39" height="39"/>
<rect x="640.5" y="38.5" fill="#2C3E50" stroke="#2C3E50" stroke-miterlimit="10" width="39" height="41"/>
<rect x="640.5" y="198.5" fill="#2C3E50" stroke="#2C3E50" stroke-miterlimit="10" width="39" height="41"/>
<rect x="640.5" y="239.5" fill="#2C3E50" stroke="#2C3E50" stroke-miterlimit="10" width="39" height="40"/>
<rect x="640.5" y="279.5" fill="#2C3E50" stroke="#2C3E50" stroke-miterlimit="10" width="39" height="40"/>
<rect x="640.5" y="359.5" fill="#2C3E50" stroke="#2C3E50" stroke-miterlimit="10" width="39" height="40"/>
<rect x="640.5" y="399.5" fill="#2C3E50" stroke="#2C3E50" stroke-miterlimit="10" width="39" height="40"/>
<rect x="640.5" y="479.5" fill="#2C3E50" stroke="#2C3E50" stroke-miterlimit="10" width="39" height="40"/>
<rect x="640.5" y="559.5" fill="#2C3E50" stroke="#2C3E50" stroke-miterlimit="10" width="39" height="40"/>
<rect x="679.5" y="-0.5" fill="#2C3E50" stroke="#2C3E50" stroke-miterlimit="10" width="41" height="39"/>
<rect x="679.5" y="38.5" fill="#2C3E50" stroke="#2C3E50" stroke-miterlimit="10" width="41" height="41"/>
<rect x="679.5" y="79.5" fill="#2C3E50" stroke="#2C3E50" stroke-miterlimit="10" width="41" height="39"/>
<rect x="679.5" y="159.5" fill="#2C3E50" stroke="#2C3E50" stroke-miterlimit="10" width="41" height="39"/>
<rect x="679.5" y="198.5" fill="#2C3E50" stroke="#2C3E50" stroke-miterlimit="10" width="41" height="41"/>
<rect x="679.5" y="239.5" fill="#2C3E50" stroke="#2C3E50" stroke-miterlimit="10" width="41" height="40"/>
<rect x="679.5" y="399.5" fill="#2C3E50" stroke="#2C3E50" stroke-miterlimit="10" width="41" height="40"/>
<rect x="679.5" y="559.5" fill="#2C3E50" stroke="#2C3E50" stroke-miterlimit="10" width="41" height="40"/>
<rect x="720.5" y="-0.5" fill="#2C3E50" stroke="#2C3E50" stroke-miterlimit="10" width="39" height="39"/>
<rect x="720.5" y="319.5" fill="#2C3E50" stroke="#2C3E50" stroke-miterlimit="10" width="39" height="40"/>
<rect x="720.5" y="479.5" fill="#2C3E50" stroke="#2C3E50" stroke-miterlimit="10" width="39" height="40"/>
<rect x="720.5" y="559.5" fill="#2C3E50" stroke="#2C3E50" stroke-miterlimit="10" width="39" height="40"/>
<rect x="759.5" y="-0.5" fill="#2C3E50" stroke="#2C3E50" stroke-miterlimit="10" width="40" height="39"/>
<rect x="759.5" y="38.5" fill="#2C3E50" stroke="#2C3E50" stroke-miterlimit="10" width="40" height="41"/>
<rect x="759.5" y="79.5" fill="#2C3E50" stroke="#2C3E50" stroke-miterlimit="10" width="40" height="39"/>
<rect x="759.5" y="118.5" fill="#2C3E50" stroke="#2C3E50" stroke-miterlimit="10" width="40" height="41"/>
<rect x="759.5" y="159.5" fill="#2C3E50" stroke="#2C3E50" stroke-miterlimit="10" width="40" height="39"/>
<rect x="759.5" y="198.5" fill="#2C3E50" stroke="#2C3E50" stroke-miterlimit="10" width="40" height="41"/>
<rect x="759.5" y="239.5" fill="#2C3E50" stroke="#2C3E50" stroke-miterlimit="10" width="40" height="40"/>
<rect x="759.5" y="279.5" fill="#2C3E50" stroke="#2C3E50" stroke-miterlimit="10" width="40" height="40"/>
<rect x="759.5" y="319.5" fill="#2C3E50" stroke="#2C3E50" stroke-miterlimit="10" width="40" height="40"/>
<rect x="759.5" y="359.5" fill="#2C3E50" stroke="#2C3E50" stroke-miterlimit="10" width="40" height="40"/>
<rect x="759.5" y="399.5" fill="#2C3E50" stroke="#2C3E50" stroke-miterlimit="10" width="40" height="40"/>
<rect x="759.5" y="439.5" fill="#2C3E50" stroke="#2C3E50" stroke-miterlimit="10" width="40" height="40"/>
<rect x="759.5" y="479.5" fill="#2C3E50" stroke="#2C3E50" stroke-miterlimit="10" width="40" height="40"/>
<rect x="759.5" y="519.5" fill="#2C3E50" stroke="#2C3E50" stroke-miterlimit="10" width="40" height="40"/>
<rect x="759.5" y="559.5" fill="#2C3E50" stroke="#2C3E50" stroke-miterlimit="10" width="40" height="40"/>
</svg>
