<?xml version="1.0" encoding="utf-8"?>
<!-- Generator: Adobe Illustrator 16.0.4, SVG Export Plug-In . SVG Version: 6.00 Build 0)  -->
<!DOCTYPE svg PUBLIC "-//W3C//DTD SVG 1.1//EN" "http://www.w3.org/Graphics/SVG/1.1/DTD/svg11.dtd">
<svg version="1.1" id="wände" xmlns="http://www.w3.org/2000/svg" xmlns:xlink="http://www.w3.org/1999/xlink" x="0px" y="0px"
	 width="800px" height="600px" viewBox="0 0 800 600" enable-background="new 0 0 800 600" xml:space="preserve">
<rect x="-0.5" y="0.5" fill="#2C3E50" stroke="#2C3E50" stroke-miterlimit="10" width="40" height="40"/>
<rect x="-0.5" y="40.5" fill="#2C3E50" stroke="#2C3E50" stroke-miterlimit="10" width="40" height="40"/>
<rect x="-0.5" y="80.5" fill="#2C3E50" stroke="#2C3E50" stroke-miterlimit="10" width="40" height="40"/>
<rect x="-0.5" y="120.5" fill="#2C3E50" stroke="#2C3E50" stroke-miterlimit="10" width="40" height="40"/>
<rect x="-0.5" y="160.5" fill="#2C3E50" stroke="#2C3E50" stroke-miterlimit="10" width="40" height="40"/>
<rect x="-0.5" y="200.5" fill="#2C3E50" stroke="#2C3E50" stroke-miterlimit="10" width="40" height="40"/>
<rect x="-0.5" y="240.5" fill="#2C3E50" stroke="#2C3E50" stroke-miterlimit="10" width="40" height="40"/>
<rect x="-0.5" y="320.5" fill="#2C3E50" stroke="#2C3E50" stroke-miterlimit="10" width="40" height="40"/>
<rect x="-0.5" y="360.5" fill="#2C3E50" stroke="#2C3E50" stroke-miterlimit="10" width="40" height="40"/>
<rect x="-0.5" y="400.5" fill="#2C3E50" stroke="#2C3E50" stroke-miterlimit="10" width="40" height="40"/>
<rect x="-0.5" y="440.5" fill="#2C3E50" stroke="#2C3E50" stroke-miterlimit="10" width="40" height="40"/>
<rect x="-0.5" y="480.5" fill="#2C3E50" stroke="#2C3E50" stroke-miterlimit="10" width="40" height="40"/>
<rect x="-0.5" y="520.5" fill="#2C3E50" stroke="#2C3E50" stroke-miterlimit="10" width="40" height="40"/>
<rect x="-0.5" y="560.5" fill="#2C3E50" stroke="#2C3E50" stroke-miterlimit="10" width="40" height="40"/>
<rect x="39.5" y="0.5" fill="#2C3E50" stroke="#2C3E50" stroke-miterlimit="10" width="40" height="40"/>
<rect x="39.5" y="560.5" fill="#2C3E50" stroke="#2C3E50" stroke-miterlimit="10" width="40" height="40"/>
<rect x="79.5" y="0.5" fill="#2C3E50" stroke="#2C3E50" stroke-miterlimit="10" width="40" height="40"/>
<rect x="319.5" y="520.5" fill="#2C3E50" stroke="#2C3E50" stroke-miterlimit="10" width="40" height="40"/>
<rect x="79.5" y="120.5" fill="#2C3E50" stroke="#2C3E50" stroke-miterlimit="10" width="40" height="40"/>
<rect x="79.5" y="160.5" fill="#2C3E50" stroke="#2C3E50" stroke-miterlimit="10" width="40" height="40"/>
<rect x="79.5" y="200.5" fill="#2C3E50" stroke="#2C3E50" stroke-miterlimit="10" width="40" height="40"/>
<rect x="79.5" y="240.5" fill="#2C3E50" stroke="#2C3E50" stroke-miterlimit="10" width="40" height="40"/>
<rect x="159.5" y="320.5" fill="#2C3E50" stroke="#2C3E50" stroke-miterlimit="10" width="40" height="40"/>
<rect x="79.5" y="320.5" fill="#2C3E50" stroke="#2C3E50" stroke-miterlimit="10" width="40" height="40"/>
<rect x="79.5" y="360.5" fill="#2C3E50" stroke="#2C3E50" stroke-miterlimit="10" width="40" height="40"/>
<rect x="79.5" y="440.5" fill="#2C3E50" stroke="#2C3E50" stroke-miterlimit="10" width="40" height="40"/>
<rect x="79.5" y="560.5" fill="#2C3E50" stroke="#2C3E50" stroke-miterlimit="10" width="40" height="40"/>
<rect x="119.5" y="0.5" fill="#2C3E50" stroke="#2C3E50" stroke-miterlimit="10" width="40" height="40"/>
<rect x="359.5" y="520.5" fill="#2C3E50" stroke="#2C3E50" stroke-miterlimit="10" width="40" height="40"/>
<rect x="119.5" y="120.5" fill="#2C3E50" stroke="#2C3E50" stroke-miterlimit="10" width="40" height="40"/>
<rect x="119.5" y="200.5" fill="#2C3E50" stroke="#2C3E50" stroke-miterlimit="10" width="40" height="40"/>
<rect x="119.5" y="560.5" fill="#2C3E50" stroke="#2C3E50" stroke-miterlimit="10" width="40" height="40"/>
<rect x="159.5" y="0.5" fill="#2C3E50" stroke="#2C3E50" stroke-miterlimit="10" width="40" height="40"/>
<rect x="439.5" y="520.5" fill="#2C3E50" stroke="#2C3E50" stroke-miterlimit="10" width="40" height="40"/>
<rect x="599.5" y="520.5" fill="#2C3E50" stroke="#2C3E50" stroke-miterlimit="10" width="40" height="40"/>
<rect x="159.5" y="120.5" fill="#2C3E50" stroke="#2C3E50" stroke-miterlimit="10" width="40" height="40"/>
<rect x="159.5" y="200.5" fill="#2C3E50" stroke="#2C3E50" stroke-miterlimit="10" width="40" height="40"/>
<rect x="119.5" y="320.5" fill="#2C3E50" stroke="#2C3E50" stroke-miterlimit="10" width="40" height="40"/>
<rect x="239.5" y="400.5" fill="#2C3E50" stroke="#2C3E50" stroke-miterlimit="10" width="40" height="40"/>
<rect x="79.5" y="400.5" fill="#2C3E50" stroke="#2C3E50" stroke-miterlimit="10" width="40" height="40"/>
<rect x="159.5" y="400.5" fill="#2C3E50" stroke="#2C3E50" stroke-miterlimit="10" width="40" height="40"/>
<rect x="159.5" y="560.5" fill="#2C3E50" stroke="#2C3E50" stroke-miterlimit="10" width="40" height="40"/>
<rect x="199.5" y="0.5" fill="#2C3E50" stroke="#2C3E50" stroke-miterlimit="10" width="40" height="40"/>
<rect x="199.5" y="200.5" fill="#2C3E50" stroke="#2C3E50" stroke-miterlimit="10" width="40" height="40"/>
<rect x="239.5" y="320.5" fill="#2C3E50" stroke="#2C3E50" stroke-miterlimit="10" width="40" height="40"/>
<rect x="199.5" y="320.5" fill="#2C3E50" stroke="#2C3E50" stroke-miterlimit="10" width="40" height="40"/>
<rect x="159.5" y="360.5" fill="#2C3E50" stroke="#2C3E50" stroke-miterlimit="10" width="40" height="40"/>
<rect x="119.5" y="520.5" fill="#2C3E50" stroke="#2C3E50" stroke-miterlimit="10" width="40" height="40"/>
<rect x="199.5" y="560.5" fill="#2C3E50" stroke="#2C3E50" stroke-miterlimit="10" width="40" height="40"/>
<rect x="239.5" y="0.5" fill="#2C3E50" stroke="#2C3E50" stroke-miterlimit="10" width="40" height="40"/>
<rect x="479.5" y="520.5" fill="#2C3E50" stroke="#2C3E50" stroke-miterlimit="10" width="40" height="40"/>
<rect x="519.5" y="520.5" fill="#2C3E50" stroke="#2C3E50" stroke-miterlimit="10" width="40" height="40"/>
<rect x="199.5" y="120.5" fill="#2C3E50" stroke="#2C3E50" stroke-miterlimit="10" width="40" height="40"/>
<rect x="239.5" y="160.5" fill="#2C3E50" stroke="#2C3E50" stroke-miterlimit="10" width="40" height="40"/>
<rect x="239.5" y="200.5" fill="#2C3E50" stroke="#2C3E50" stroke-miterlimit="10" width="40" height="40"/>
<rect x="239.5" y="120.5" fill="#2C3E50" stroke="#2C3E50" stroke-miterlimit="10" width="40" height="40"/>
<rect x="239.5" y="360.5" fill="#2C3E50" stroke="#2C3E50" stroke-miterlimit="10" width="40" height="40"/>
<rect x="239.5" y="440.5" fill="#2C3E50" stroke="#2C3E50" stroke-miterlimit="10" width="40" height="40"/>
<rect x="439.5" y="400.5" fill="#2C3E50" stroke="#2C3E50" stroke-miterlimit="10" width="40" height="40"/>
<rect x="239.5" y="560.5" fill="#2C3E50" stroke="#2C3E50" stroke-miterlimit="10" width="40" height="40"/>
<rect x="279.5" y="0.5" fill="#2C3E50" stroke="#2C3E50" stroke-miterlimit="10" width="40" height="40"/>
<rect x="559.5" y="520.5" fill="#2C3E50" stroke="#2C3E50" stroke-miterlimit="10" width="40" height="40"/>
<rect x="279.5" y="560.5" fill="#2C3E50" stroke="#2C3E50" stroke-miterlimit="10" width="40" height="40"/>
<rect x="319.5" y="0.5" fill="#2C3E50" stroke="#2C3E50" stroke-miterlimit="10" width="40" height="40"/>
<rect x="319.5" y="120.5" fill="#2C3E50" stroke="#2C3E50" stroke-miterlimit="10" width="40" height="40"/>
<rect x="319.5" y="160.5" fill="#2C3E50" stroke="#2C3E50" stroke-miterlimit="10" width="40" height="40"/>
<rect x="319.5" y="240.5" fill="#2C3E50" stroke="#2C3E50" stroke-miterlimit="10" width="40" height="40"/>
<rect x="359.5" y="320.5" fill="#2C3E50" stroke="#2C3E50" stroke-miterlimit="10" width="40" height="40"/>
<rect x="319.5" y="320.5" fill="#2C3E50" stroke="#2C3E50" stroke-miterlimit="10" width="40" height="40"/>
<rect x="319.5" y="360.5" fill="#2C3E50" stroke="#2C3E50" stroke-miterlimit="10" width="40" height="40"/>
<rect x="319.5" y="400.5" fill="#2C3E50" stroke="#2C3E50" stroke-miterlimit="10" width="40" height="40"/>
<rect x="319.5" y="440.5" fill="#2C3E50" stroke="#2C3E50" stroke-miterlimit="10" width="40" height="40"/>
<rect x="319.5" y="560.5" fill="#2C3E50" stroke="#2C3E50" stroke-miterlimit="10" width="40" height="40"/>
<rect x="359.5" y="0.5" fill="#2C3E50" stroke="#2C3E50" stroke-miterlimit="10" width="40" height="40"/>
<rect x="639.5" y="520.5" fill="#2C3E50" stroke="#2C3E50" stroke-miterlimit="10" width="40" height="40"/>
<rect x="359.5" y="120.5" fill="#2C3E50" stroke="#2C3E50" stroke-miterlimit="10" width="40" height="40"/>
<rect x="319.5" y="200.5" fill="#2C3E50" stroke="#2C3E50" stroke-miterlimit="10" width="40" height="40"/>
<rect x="359.5" y="200.5" fill="#2C3E50" stroke="#2C3E50" stroke-miterlimit="10" width="40" height="40"/>
<rect x="679.5" y="360.5" fill="#2C3E50" stroke="#2C3E50" stroke-miterlimit="10" width="40" height="40"/>
<rect x="439.5" y="200.5" fill="#2C3E50" stroke="#2C3E50" stroke-miterlimit="10" width="40" height="40"/>
<rect x="359.5" y="560.5" fill="#2C3E50" stroke="#2C3E50" stroke-miterlimit="10" width="40" height="40"/>
<rect x="399.5" y="0.5" fill="#2C3E50" stroke="#2C3E50" stroke-miterlimit="10" width="40" height="40"/>
<rect x="679.5" y="520.5" fill="#2C3E50" stroke="#2C3E50" stroke-miterlimit="10" width="40" height="40"/>
<rect x="479.5" y="120.5" fill="#2C3E50" stroke="#2C3E50" stroke-miterlimit="10" width="40" height="40"/>
<rect x="439.5" y="120.5" fill="#2C3E50" stroke="#2C3E50" stroke-miterlimit="10" width="40" height="40"/>
<rect x="439.5" y="320.5" fill="#2C3E50" stroke="#2C3E50" stroke-miterlimit="10" width="40" height="40"/>
<rect x="399.5" y="560.5" fill="#2C3E50" stroke="#2C3E50" stroke-miterlimit="10" width="40" height="40"/>
<rect x="439.5" y="0.5" fill="#2C3E50" stroke="#2C3E50" stroke-miterlimit="10" width="40" height="40"/>
<rect x="479.5" y="200.5" fill="#2C3E50" stroke="#2C3E50" stroke-miterlimit="10" width="40" height="40"/>
<rect x="479.5" y="240.5" fill="#2C3E50" stroke="#2C3E50" stroke-miterlimit="10" width="40" height="40"/>
<rect x="559.5" y="360.5" fill="#2C3E50" stroke="#2C3E50" stroke-miterlimit="10" width="40" height="40"/>
<rect x="479.5" y="320.5" fill="#2C3E50" stroke="#2C3E50" stroke-miterlimit="10" width="40" height="40"/>
<rect x="479.5" y="400.5" fill="#2C3E50" stroke="#2C3E50" stroke-miterlimit="10" width="40" height="40"/>
<rect x="479.5" y="440.5" fill="#2C3E50" stroke="#2C3E50" stroke-miterlimit="10" width="40" height="40"/>
<rect x="479.5" y="360.5" fill="#2C3E50" stroke="#2C3E50" stroke-miterlimit="10" width="40" height="40"/>
<rect x="439.5" y="560.5" fill="#2C3E50" stroke="#2C3E50" stroke-miterlimit="10" width="40" height="40"/>
<rect x="479.5" y="0.5" fill="#2C3E50" stroke="#2C3E50" stroke-miterlimit="10" width="40" height="40"/>
<rect x="279.5" y="520.5" fill="#2C3E50" stroke="#2C3E50" stroke-miterlimit="10" width="40" height="40"/>
<rect x="479.5" y="160.5" fill="#2C3E50" stroke="#2C3E50" stroke-miterlimit="10" width="40" height="40"/>
<rect x="479.5" y="560.5" fill="#2C3E50" stroke="#2C3E50" stroke-miterlimit="10" width="40" height="40"/>
<rect x="519.5" y="0.5" fill="#2C3E50" stroke="#2C3E50" stroke-miterlimit="10" width="40" height="40"/>
<rect x="559.5" y="120.5" fill="#2C3E50" stroke="#2C3E50" stroke-miterlimit="10" width="40" height="40"/>
<rect x="559.5" y="160.5" fill="#2C3E50" stroke="#2C3E50" stroke-miterlimit="10" width="40" height="40"/>
<rect x="559.5" y="200.5" fill="#2C3E50" stroke="#2C3E50" stroke-miterlimit="10" width="40" height="40"/>
<rect x="559.5" y="240.5" fill="#2C3E50" stroke="#2C3E50" stroke-miterlimit="10" width="40" height="40"/>
<rect x="359.5" y="400.5" fill="#2C3E50" stroke="#2C3E50" stroke-miterlimit="10" width="40" height="40"/>
<rect x="159.5" y="520.5" fill="#2C3E50" stroke="#2C3E50" stroke-miterlimit="10" width="40" height="40"/>
<rect x="519.5" y="560.5" fill="#2C3E50" stroke="#2C3E50" stroke-miterlimit="10" width="40" height="40"/>
<rect x="559.5" y="0.5" fill="#2C3E50" stroke="#2C3E50" stroke-miterlimit="10" width="40" height="40"/>
<rect x="239.5" y="520.5" fill="#2C3E50" stroke="#2C3E50" stroke-miterlimit="10" width="40" height="40"/>
<rect x="639.5" y="120.5" fill="#2C3E50" stroke="#2C3E50" stroke-miterlimit="10" width="40" height="40"/>
<rect x="599.5" y="120.5" fill="#2C3E50" stroke="#2C3E50" stroke-miterlimit="10" width="40" height="40"/>
<rect x="599.5" y="240.5" fill="#2C3E50" stroke="#2C3E50" stroke-miterlimit="10" width="40" height="40"/>
<rect x="559.5" y="320.5" fill="#2C3E50" stroke="#2C3E50" stroke-miterlimit="10" width="40" height="40"/>
<rect x="559.5" y="400.5" fill="#2C3E50" stroke="#2C3E50" stroke-miterlimit="10" width="40" height="40"/>
<rect x="559.5" y="440.5" fill="#2C3E50" stroke="#2C3E50" stroke-miterlimit="10" width="40" height="40"/>
<rect x="559.5" y="560.5" fill="#2C3E50" stroke="#2C3E50" stroke-miterlimit="10" width="40" height="40"/>
<rect x="599.5" y="0.5" fill="#2C3E50" stroke="#2C3E50" stroke-miterlimit="10" width="40" height="40"/>
<rect x="639.5" y="240.5" fill="#2C3E50" stroke="#2C3E50" stroke-miterlimit="10" width="40" height="40"/>
<rect x="679.5" y="400.5" fill="#2C3E50" stroke="#2C3E50" stroke-miterlimit="10" width="40" height="40"/>
<rect x="599.5" y="400.5" fill="#2C3E50" stroke="#2C3E50" stroke-miterlimit="10" width="40" height="40"/>
<rect x="599.5" y="560.5" fill="#2C3E50" stroke="#2C3E50" stroke-miterlimit="10" width="40" height="40"/>
<rect x="639.5" y="0.5" fill="#2C3E50" stroke="#2C3E50" stroke-miterlimit="10" width="40" height="40"/>
<rect x="199.5" y="520.5" fill="#2C3E50" stroke="#2C3E50" stroke-miterlimit="10" width="40" height="40"/>
<rect x="79.5" y="520.5" fill="#2C3E50" stroke="#2C3E50" stroke-miterlimit="10" width="40" height="40"/>
<rect x="679.5" y="120.5" fill="#2C3E50" stroke="#2C3E50" stroke-miterlimit="10" width="40" height="40"/>
<rect x="679.5" y="440.5" fill="#2C3E50" stroke="#2C3E50" stroke-miterlimit="10" width="40" height="40"/>
<rect x="639.5" y="560.5" fill="#2C3E50" stroke="#2C3E50" stroke-miterlimit="10" width="40" height="40"/>
<rect x="679.5" y="0.5" fill="#2C3E50" stroke="#2C3E50" stroke-miterlimit="10" width="40" height="40"/>
<rect x="639.5" y="440.5" fill="#2C3E50" stroke="#2C3E50" stroke-miterlimit="10" width="40" height="40"/>
<rect x="679.5" y="560.5" fill="#2C3E50" stroke="#2C3E50" stroke-miterlimit="10" width="40" height="40"/>
<rect x="719.5" y="0.5" fill="#2C3E50" stroke="#2C3E50" stroke-miterlimit="10" width="40" height="40"/>
<rect x="679.5" y="240.5" fill="#2C3E50" stroke="#2C3E50" stroke-miterlimit="10" width="40" height="40"/>
<rect x="679.5" y="320.5" fill="#2C3E50" stroke="#2C3E50" stroke-miterlimit="10" width="40" height="40"/>
<rect x="719.5" y="560.5" fill="#2C3E50" stroke="#2C3E50" stroke-miterlimit="10" width="40" height="40"/>
<rect x="759.5" y="0.5" fill="#2C3E50" stroke="#2C3E50" stroke-miterlimit="10" width="40" height="40"/>
<rect x="759.5" y="40.5" fill="#2C3E50" stroke="#2C3E50" stroke-miterlimit="10" width="40" height="40"/>
<rect x="759.5" y="80.5" fill="#2C3E50" stroke="#2C3E50" stroke-miterlimit="10" width="40" height="40"/>
<rect x="759.5" y="120.5" fill="#2C3E50" stroke="#2C3E50" stroke-miterlimit="10" width="40" height="40"/>
<rect x="759.5" y="160.5" fill="#2C3E50" stroke="#2C3E50" stroke-miterlimit="10" width="40" height="40"/>
<rect x="759.5" y="200.5" fill="#2C3E50" stroke="#2C3E50" stroke-miterlimit="10" width="40" height="40"/>
<rect x="759.5" y="240.5" fill="#2C3E50" stroke="#2C3E50" stroke-miterlimit="10" width="40" height="40"/>
<rect x="759.5" y="320.5" fill="#2C3E50" stroke="#2C3E50" stroke-miterlimit="10" width="40" height="40"/>
<rect x="759.5" y="360.5" fill="#2C3E50" stroke="#2C3E50" stroke-miterlimit="10" width="40" height="40"/>
<rect x="759.5" y="400.5" fill="#2C3E50" stroke="#2C3E50" stroke-miterlimit="10" width="40" height="40"/>
<rect x="759.5" y="440.5" fill="#2C3E50" stroke="#2C3E50" stroke-miterlimit="10" width="40" height="40"/>
<rect x="759.5" y="480.5" fill="#2C3E50" stroke="#2C3E50" stroke-miterlimit="10" width="40" height="40"/>
<rect x="759.5" y="520.5" fill="#2C3E50" stroke="#2C3E50" stroke-miterlimit="10" width="40" height="40"/>
<rect x="759.5" y="560.5" fill="#2C3E50" stroke="#2C3E50" stroke-miterlimit="10" width="40" height="40"/>
<rect x="319.5" y="40.5" fill="#2C3E50" stroke="#2C3E50" stroke-miterlimit="10" width="40" height="40"/>
<rect x="359.5" y="40.5" fill="#2C3E50" stroke="#2C3E50" stroke-miterlimit="10" width="40" height="40"/>
<rect x="439.5" y="40.5" fill="#2C3E50" stroke="#2C3E50" stroke-miterlimit="10" width="40" height="40"/>
<rect x="599.5" y="40.5" fill="#2C3E50" stroke="#2C3E50" stroke-miterlimit="10" width="40" height="40"/>
<rect x="119.5" y="40.5" fill="#2C3E50" stroke="#2C3E50" stroke-miterlimit="10" width="40" height="40"/>
<rect x="479.5" y="40.5" fill="#2C3E50" stroke="#2C3E50" stroke-miterlimit="10" width="40" height="40"/>
<rect x="519.5" y="40.5" fill="#2C3E50" stroke="#2C3E50" stroke-miterlimit="10" width="40" height="40"/>
<rect x="559.5" y="40.5" fill="#2C3E50" stroke="#2C3E50" stroke-miterlimit="10" width="40" height="40"/>
<rect x="639.5" y="40.5" fill="#2C3E50" stroke="#2C3E50" stroke-miterlimit="10" width="40" height="40"/>
<rect x="679.5" y="40.5" fill="#2C3E50" stroke="#2C3E50" stroke-miterlimit="10" width="40" height="40"/>
<rect x="279.5" y="40.5" fill="#2C3E50" stroke="#2C3E50" stroke-miterlimit="10" width="40" height="40"/>
<rect x="159.5" y="40.5" fill="#2C3E50" stroke="#2C3E50" stroke-miterlimit="10" width="40" height="40"/>
<rect x="239.5" y="40.5" fill="#2C3E50" stroke="#2C3E50" stroke-miterlimit="10" width="40" height="40"/>
<rect x="199.5" y="40.5" fill="#2C3E50" stroke="#2C3E50" stroke-miterlimit="10" width="40" height="40"/>
<rect x="79.5" y="40.5" fill="#2C3E50" stroke="#2C3E50" stroke-miterlimit="10" width="40" height="40"/>
<rect x="399.5" y="520.5" fill="#2C3E50" stroke="#2C3E50" stroke-miterlimit="10" width="40" height="40"/>
<rect x="399.5" y="400.5" fill="#2C3E50" stroke="#2C3E50" stroke-miterlimit="10" width="40" height="40"/>
<rect x="399.5" y="320.5" fill="#2C3E50" stroke="#2C3E50" stroke-miterlimit="10" width="40" height="40"/>
<rect x="399.5" y="200.5" fill="#2C3E50" stroke="#2C3E50" stroke-miterlimit="10" width="40" height="40"/>
<rect x="399.5" y="120.5" fill="#2C3E50" stroke="#2C3E50" stroke-miterlimit="10" width="40" height="40"/>
<rect x="399.5" y="40.5" fill="#2C3E50" stroke="#2C3E50" stroke-miterlimit="10" width="40" height="40"/>
<rect x="-0.5" y="280.5" fill="#2C3E50" stroke="#2C3E50" stroke-miterlimit="10" width="40" height="40"/>
<rect x="759.5" y="280.5" fill="#2C3E50" stroke="#2C3E50" stroke-miterlimit="10" width="40" height="40"/>
<g>
	<rect x="360" y="160" fill="#FFFFFF" width="40" height="40"/>
	<rect x="400" y="160" fill="#FFFFFF" width="40" height="40"/>
	<rect x="440" y="160" fill="#FFFFFF" width="40" height="40"/>
	<rect x="120" y="160" fill="#FFFFFF" width="40" height="40"/>
	<rect x="160" y="160" fill="#FFFFFF" width="40" height="40"/>
	<rect x="200" y="160" fill="#FFFFFF" width="40" height="40"/>
	<rect x="360" y="360" fill="#FFFFFF" width="40" height="40"/>
	<rect x="400" y="360" fill="#FFFFFF" width="40" height="40"/>
	<rect x="440" y="360" fill="#FFFFFF" width="40" height="40"/>
</g>
</svg>
