<?xml version="1.0" encoding="utf-8"?>
<!-- Generator: Adobe Illustrator 16.0.4, SVG Export Plug-In . SVG Version: 6.00 Build 0)  -->
<!DOCTYPE svg PUBLIC "-//W3C//DTD SVG 1.1//EN" "http://www.w3.org/Graphics/SVG/1.1/DTD/svg11.dtd">
<svg version="1.1" id="Ebene_2" xmlns="http://www.w3.org/2000/svg" xmlns:xlink="http://www.w3.org/1999/xlink" x="0px" y="0px"
	 width="800px" height="600px" viewBox="0 0 800 600" enable-background="new 0 0 800 600" xml:space="preserve">
<rect fill="#2C3E50" stroke="#2C3E50" stroke-width="2" stroke-miterlimit="10" width="40" height="40"/>
<rect y="40" fill="#2C3E50" stroke="#2C3E50" stroke-width="2" stroke-miterlimit="10" width="40" height="40"/>
<rect y="80" fill="#2C3E50" stroke="#2C3E50" stroke-width="2" stroke-miterlimit="10" width="40" height="40"/>
<rect y="120" fill="#2C3E50" stroke="#2C3E50" stroke-width="2" stroke-miterlimit="10" width="40" height="40"/>
<rect y="160" fill="#2C3E50" stroke="#2C3E50" stroke-width="2" stroke-miterlimit="10" width="40" height="40"/>
<rect y="200" fill="#2C3E50" stroke="#2C3E50" stroke-width="2" stroke-miterlimit="10" width="40" height="40"/>
<rect y="240" fill="#2C3E50" stroke="#2C3E50" stroke-width="2" stroke-miterlimit="10" width="40" height="40"/>
<rect y="280" fill="#2C3E50" stroke="#2C3E50" stroke-width="2" stroke-miterlimit="10" width="40" height="40"/>
<rect y="320" fill="#2C3E50" stroke="#2C3E50" stroke-width="2" stroke-miterlimit="10" width="40" height="40"/>
<rect y="360" fill="#2C3E50" stroke="#2C3E50" stroke-width="2" stroke-miterlimit="10" width="40" height="40"/>
<rect y="400" fill="#2C3E50" stroke="#2C3E50" stroke-width="2" stroke-miterlimit="10" width="40" height="40"/>
<rect y="440" fill="#2C3E50" stroke="#2C3E50" stroke-width="2" stroke-miterlimit="10" width="40" height="40"/>
<rect y="480" fill="#2C3E50" stroke="#2C3E50" stroke-width="2" stroke-miterlimit="10" width="40" height="40"/>
<rect y="520" fill="#2C3E50" stroke="#2C3E50" stroke-width="2" stroke-miterlimit="10" width="40" height="40"/>
<rect y="560" fill="#2C3E50" stroke="#2C3E50" stroke-width="2" stroke-miterlimit="10" width="40" height="40"/>
<rect x="40" fill="#2C3E50" stroke="#2C3E50" stroke-width="2" stroke-miterlimit="10" width="40" height="40"/>
<rect x="40" y="40" fill="#2C3E50" stroke="#2C3E50" stroke-width="2" stroke-miterlimit="10" width="40" height="40"/>
<rect x="40" y="200" fill="#2C3E50" stroke="#2C3E50" stroke-width="2" stroke-miterlimit="10" width="40" height="40"/>
<rect x="40" y="360" fill="#2C3E50" stroke="#2C3E50" stroke-width="2" stroke-miterlimit="10" width="40" height="40"/>
<rect x="40" y="560" fill="#2C3E50" stroke="#2C3E50" stroke-width="2" stroke-miterlimit="10" width="40" height="40"/>
<rect x="80" fill="#2C3E50" stroke="#2C3E50" stroke-width="2" stroke-miterlimit="10" width="39" height="40"/>
<rect x="80" y="120" fill="#2C3E50" stroke="#2C3E50" stroke-width="2" stroke-miterlimit="10" width="39" height="40"/>
<rect x="80" y="280" fill="#2C3E50" stroke="#2C3E50" stroke-width="2" stroke-miterlimit="10" width="39" height="40"/>
<rect x="80" y="440" fill="#2C3E50" stroke="#2C3E50" stroke-width="2" stroke-miterlimit="10" width="39" height="40"/>
<rect x="80" y="480" fill="#2C3E50" stroke="#2C3E50" stroke-width="2" stroke-miterlimit="10" width="39" height="40"/>
<rect x="80" y="560" fill="#2C3E50" stroke="#2C3E50" stroke-width="2" stroke-miterlimit="10" width="39" height="40"/>
<rect x="119" fill="#2C3E50" stroke="#2C3E50" stroke-width="2" stroke-miterlimit="10" width="41" height="40"/>
<rect x="119" y="80" fill="#2C3E50" stroke="#2C3E50" stroke-width="2" stroke-miterlimit="10" width="41" height="40"/>
<rect x="119" y="120" fill="#2C3E50" stroke="#2C3E50" stroke-width="2" stroke-miterlimit="10" width="41" height="40"/>
<rect x="119" y="160" fill="#2C3E50" stroke="#2C3E50" stroke-width="2" stroke-miterlimit="10" width="41" height="40"/>
<rect x="119" y="240" fill="#2C3E50" stroke="#2C3E50" stroke-width="2" stroke-miterlimit="10" width="41" height="40"/>
<rect x="119" y="280" fill="#2C3E50" stroke="#2C3E50" stroke-width="2" stroke-miterlimit="10" width="41" height="40"/>
<rect x="119" y="360" fill="#2C3E50" stroke="#2C3E50" stroke-width="2" stroke-miterlimit="10" width="41" height="40"/>
<rect x="119" y="400" fill="#2C3E50" stroke="#2C3E50" stroke-width="2" stroke-miterlimit="10" width="41" height="40"/>
<rect x="119" y="440" fill="#2C3E50" stroke="#2C3E50" stroke-width="2" stroke-miterlimit="10" width="41" height="40"/>
<rect x="119" y="480" fill="#2C3E50" stroke="#2C3E50" stroke-width="2" stroke-miterlimit="10" width="41" height="40"/>
<rect x="119" y="560" fill="#2C3E50" stroke="#2C3E50" stroke-width="2" stroke-miterlimit="10" width="41" height="40"/>
<rect x="160" fill="#2C3E50" stroke="#2C3E50" stroke-width="2" stroke-miterlimit="10" width="40" height="40"/>
<rect x="160" y="160" fill="#2C3E50" stroke="#2C3E50" stroke-width="2" stroke-miterlimit="10" width="40" height="40"/>
<rect x="160" y="560" fill="#2C3E50" stroke="#2C3E50" stroke-width="2" stroke-miterlimit="10" width="40" height="40"/>
<rect x="200" fill="#2C3E50" stroke="#2C3E50" stroke-width="2" stroke-miterlimit="10" width="39" height="40"/>
<rect x="200" y="40" fill="#2C3E50" stroke="#2C3E50" stroke-width="2" stroke-miterlimit="10" width="39" height="40"/>
<rect x="200" y="80" fill="#2C3E50" stroke="#2C3E50" stroke-width="2" stroke-miterlimit="10" width="39" height="40"/>
<rect x="200" y="160" fill="#2C3E50" stroke="#2C3E50" stroke-width="2" stroke-miterlimit="10" width="39" height="40"/>
<rect x="200" y="200" fill="#2C3E50" stroke="#2C3E50" stroke-width="2" stroke-miterlimit="10" width="39" height="40"/>
<rect x="200" y="240" fill="#2C3E50" stroke="#2C3E50" stroke-width="2" stroke-miterlimit="10" width="39" height="40"/>
<rect x="200" y="280" fill="#2C3E50" stroke="#2C3E50" stroke-width="2" stroke-miterlimit="10" width="39" height="40"/>
<rect x="200" y="360" fill="#2C3E50" stroke="#2C3E50" stroke-width="2" stroke-miterlimit="10" width="39" height="40"/>
<rect x="200" y="400" fill="#2C3E50" stroke="#2C3E50" stroke-width="2" stroke-miterlimit="10" width="39" height="40"/>
<rect x="200" y="440" fill="#2C3E50" stroke="#2C3E50" stroke-width="2" stroke-miterlimit="10" width="39" height="40"/>
<rect x="200" y="480" fill="#2C3E50" stroke="#2C3E50" stroke-width="2" stroke-miterlimit="10" width="39" height="40"/>
<rect x="200" y="520" fill="#2C3E50" stroke="#2C3E50" stroke-width="2" stroke-miterlimit="10" width="39" height="40"/>
<rect x="200" y="560" fill="#2C3E50" stroke="#2C3E50" stroke-width="2" stroke-miterlimit="10" width="39" height="40"/>
<rect x="239" fill="#2C3E50" stroke="#2C3E50" stroke-width="2" stroke-miterlimit="10" width="40" height="40"/>
<rect x="239" y="280" fill="#2C3E50" stroke="#2C3E50" stroke-width="2" stroke-miterlimit="10" width="40" height="40"/>
<rect x="239" y="360" fill="#2C3E50" stroke="#2C3E50" stroke-width="2" stroke-miterlimit="10" width="40" height="40"/>
<rect x="239" y="560" fill="#2C3E50" stroke="#2C3E50" stroke-width="2" stroke-miterlimit="10" width="40" height="40"/>
<rect x="279" fill="#2C3E50" stroke="#2C3E50" stroke-width="2" stroke-miterlimit="10" width="41" height="40"/>
<rect x="279" y="40" fill="#2C3E50" stroke="#2C3E50" stroke-width="2" stroke-miterlimit="10" width="41" height="40"/>
<rect x="279" y="120" fill="#2C3E50" stroke="#2C3E50" stroke-width="2" stroke-miterlimit="10" width="41" height="40"/>
<rect x="279" y="160" fill="#2C3E50" stroke="#2C3E50" stroke-width="2" stroke-miterlimit="10" width="41" height="40"/>
<rect x="279" y="440" fill="#2C3E50" stroke="#2C3E50" stroke-width="2" stroke-miterlimit="10" width="41" height="40"/>
<rect x="279" y="480" fill="#2C3E50" stroke="#2C3E50" stroke-width="2" stroke-miterlimit="10" width="41" height="40"/>
<rect x="279" y="560" fill="#2C3E50" stroke="#2C3E50" stroke-width="2" stroke-miterlimit="10" width="41" height="40"/>
<rect x="320" fill="#2C3E50" stroke="#2C3E50" stroke-width="2" stroke-miterlimit="10" width="40" height="40"/>
<rect x="320" y="240" fill="#2C3E50" stroke="#2C3E50" stroke-width="2" stroke-miterlimit="10" width="40" height="40"/>
<rect x="320" y="280" fill="#2C3E50" stroke="#2C3E50" stroke-width="2" stroke-miterlimit="10" width="40" height="40"/>
<rect x="320" y="320" fill="#2C3E50" stroke="#2C3E50" stroke-width="2" stroke-miterlimit="10" width="40" height="40"/>
<rect x="320" y="360" fill="#2C3E50" stroke="#2C3E50" stroke-width="2" stroke-miterlimit="10" width="40" height="40"/>
<rect x="320" y="440" fill="#2C3E50" stroke="#2C3E50" stroke-width="2" stroke-miterlimit="10" width="40" height="40"/>
<rect x="320" y="480" fill="#2C3E50" stroke="#2C3E50" stroke-width="2" stroke-miterlimit="10" width="40" height="40"/>
<rect x="320" y="560" fill="#2C3E50" stroke="#2C3E50" stroke-width="2" stroke-miterlimit="10" width="40" height="40"/>
<rect x="360" fill="#2C3E50" stroke="#2C3E50" stroke-width="2" stroke-miterlimit="10" width="39" height="40"/>
<rect x="360" y="80" fill="#2C3E50" stroke="#2C3E50" stroke-width="2" stroke-miterlimit="10" width="39" height="40"/>
<rect x="360" y="120" fill="#2C3E50" stroke="#2C3E50" stroke-width="2" stroke-miterlimit="10" width="39" height="40"/>
<rect x="360" y="160" fill="#2C3E50" stroke="#2C3E50" stroke-width="2" stroke-miterlimit="10" width="39" height="40"/>
<rect x="360" y="240" fill="#2C3E50" stroke="#2C3E50" stroke-width="2" stroke-miterlimit="10" width="39" height="40"/>
<rect x="360" y="320" fill="#2C3E50" stroke="#2C3E50" stroke-width="2" stroke-miterlimit="10" width="39" height="40"/>
<rect x="360" y="480" fill="#2C3E50" stroke="#2C3E50" stroke-width="2" stroke-miterlimit="10" width="39" height="40"/>
<rect x="360" y="560" fill="#2C3E50" stroke="#2C3E50" stroke-width="2" stroke-miterlimit="10" width="39" height="40"/>
<rect x="399" fill="#2C3E50" stroke="#2C3E50" stroke-width="2" stroke-miterlimit="10" width="41" height="40"/>
<rect x="399" y="80" fill="#2C3E50" stroke="#2C3E50" stroke-width="2" stroke-miterlimit="10" width="41" height="40"/>
<rect x="399" y="120" fill="#2C3E50" stroke="#2C3E50" stroke-width="2" stroke-miterlimit="10" width="41" height="40"/>
<rect x="399" y="160" fill="#2C3E50" stroke="#2C3E50" stroke-width="2" stroke-miterlimit="10" width="41" height="40"/>
<rect x="399" y="320" fill="#2C3E50" stroke="#2C3E50" stroke-width="2" stroke-miterlimit="10" width="41" height="40"/>
<rect x="399" y="400" fill="#2C3E50" stroke="#2C3E50" stroke-width="2" stroke-miterlimit="10" width="41" height="40"/>
<rect x="399" y="480" fill="#2C3E50" stroke="#2C3E50" stroke-width="2" stroke-miterlimit="10" width="41" height="40"/>
<rect x="399" y="560" fill="#2C3E50" stroke="#2C3E50" stroke-width="2" stroke-miterlimit="10" width="41" height="40"/>
<rect x="440" fill="#2C3E50" stroke="#2C3E50" stroke-width="2" stroke-miterlimit="10" width="40" height="40"/>
<rect x="440" y="240" fill="#2C3E50" stroke="#2C3E50" stroke-width="2" stroke-miterlimit="10" width="40" height="40"/>
<rect x="440" y="400" fill="#2C3E50" stroke="#2C3E50" stroke-width="2" stroke-miterlimit="10" width="40" height="40"/>
<rect x="440" y="560" fill="#2C3E50" stroke="#2C3E50" stroke-width="2" stroke-miterlimit="10" width="40" height="40"/>
<rect x="480" fill="#2C3E50" stroke="#2C3E50" stroke-width="2" stroke-miterlimit="10" width="40" height="40"/>
<rect x="480" y="40" fill="#2C3E50" stroke="#2C3E50" stroke-width="2" stroke-miterlimit="10" width="40" height="40"/>
<rect x="480" y="120" fill="#2C3E50" stroke="#2C3E50" stroke-width="2" stroke-miterlimit="10" width="40" height="40"/>
<rect x="480" y="160" fill="#2C3E50" stroke="#2C3E50" stroke-width="2" stroke-miterlimit="10" width="40" height="40"/>
<rect x="480" y="240" fill="#2C3E50" stroke="#2C3E50" stroke-width="2" stroke-miterlimit="10" width="40" height="40"/>
<rect x="480" y="280" fill="#2C3E50" stroke="#2C3E50" stroke-width="2" stroke-miterlimit="10" width="40" height="40"/>
<rect x="480" y="320" fill="#2C3E50" stroke="#2C3E50" stroke-width="2" stroke-miterlimit="10" width="40" height="40"/>
<rect x="480" y="360" fill="#2C3E50" stroke="#2C3E50" stroke-width="2" stroke-miterlimit="10" width="40" height="40"/>
<rect x="480" y="400" fill="#2C3E50" stroke="#2C3E50" stroke-width="2" stroke-miterlimit="10" width="40" height="40"/>
<rect x="480" y="440" fill="#2C3E50" stroke="#2C3E50" stroke-width="2" stroke-miterlimit="10" width="40" height="40"/>
<rect x="480" y="480" fill="#2C3E50" stroke="#2C3E50" stroke-width="2" stroke-miterlimit="10" width="40" height="40"/>
<rect x="480" y="520" fill="#2C3E50" stroke="#2C3E50" stroke-width="2" stroke-miterlimit="10" width="40" height="40"/>
<rect x="480" y="560" fill="#2C3E50" stroke="#2C3E50" stroke-width="2" stroke-miterlimit="10" width="40" height="40"/>
<rect x="520" fill="#2C3E50" stroke="#2C3E50" stroke-width="2" stroke-miterlimit="10" width="39" height="40"/>
<rect x="520" y="40" fill="#2C3E50" stroke="#2C3E50" stroke-width="2" stroke-miterlimit="10" width="39" height="40"/>
<rect x="520" y="120" fill="#2C3E50" stroke="#2C3E50" stroke-width="2" stroke-miterlimit="10" width="39" height="40"/>
<rect x="520" y="160" fill="#2C3E50" stroke="#2C3E50" stroke-width="2" stroke-miterlimit="10" width="39" height="40"/>
<rect x="520" y="240" fill="#2C3E50" stroke="#2C3E50" stroke-width="2" stroke-miterlimit="10" width="39" height="40"/>
<rect x="520" y="280" fill="#2C3E50" stroke="#2C3E50" stroke-width="2" stroke-miterlimit="10" width="39" height="40"/>
<rect x="520" y="360" fill="#2C3E50" stroke="#2C3E50" stroke-width="2" stroke-miterlimit="10" width="39" height="40"/>
<rect x="520" y="520" fill="#2C3E50" stroke="#2C3E50" stroke-width="2" stroke-miterlimit="10" width="39" height="40"/>
<rect x="520" y="560" fill="#2C3E50" stroke="#2C3E50" stroke-width="2" stroke-miterlimit="10" width="39" height="40"/>
<rect x="559" fill="#2C3E50" stroke="#2C3E50" stroke-width="2" stroke-miterlimit="10" width="41" height="40"/>
<rect x="559" y="440" fill="#2C3E50" stroke="#2C3E50" stroke-width="2" stroke-miterlimit="10" width="41" height="40"/>
<rect x="559" y="560" fill="#2C3E50" stroke="#2C3E50" stroke-width="2" stroke-miterlimit="10" width="41" height="40"/>
<rect x="600" fill="#2C3E50" stroke="#2C3E50" stroke-width="2" stroke-miterlimit="10" width="40" height="40"/>
<rect x="600" y="80" fill="#2C3E50" stroke="#2C3E50" stroke-width="2" stroke-miterlimit="10" width="40" height="40"/>
<rect x="600" y="120" fill="#2C3E50" stroke="#2C3E50" stroke-width="2" stroke-miterlimit="10" width="40" height="40"/>
<rect x="600" y="160" fill="#2C3E50" stroke="#2C3E50" stroke-width="2" stroke-miterlimit="10" width="40" height="40"/>
<rect x="600" y="240" fill="#2C3E50" stroke="#2C3E50" stroke-width="2" stroke-miterlimit="10" width="40" height="40"/>
<rect x="600" y="320" fill="#2C3E50" stroke="#2C3E50" stroke-width="2" stroke-miterlimit="10" width="40" height="40"/>
<rect x="600" y="360" fill="#2C3E50" stroke="#2C3E50" stroke-width="2" stroke-miterlimit="10" width="40" height="40"/>
<rect x="600" y="400" fill="#2C3E50" stroke="#2C3E50" stroke-width="2" stroke-miterlimit="10" width="40" height="40"/>
<rect x="600" y="440" fill="#2C3E50" stroke="#2C3E50" stroke-width="2" stroke-miterlimit="10" width="40" height="40"/>
<rect x="600" y="480" fill="#2C3E50" stroke="#2C3E50" stroke-width="2" stroke-miterlimit="10" width="40" height="40"/>
<rect x="600" y="560" fill="#2C3E50" stroke="#2C3E50" stroke-width="2" stroke-miterlimit="10" width="40" height="40"/>
<rect x="640" fill="#2C3E50" stroke="#2C3E50" stroke-width="2" stroke-miterlimit="10" width="40" height="40"/>
<rect x="640" y="160" fill="#2C3E50" stroke="#2C3E50" stroke-width="2" stroke-miterlimit="10" width="40" height="40"/>
<rect x="640" y="240" fill="#2C3E50" stroke="#2C3E50" stroke-width="2" stroke-miterlimit="10" width="40" height="40"/>
<rect x="640" y="280" fill="#2C3E50" stroke="#2C3E50" stroke-width="2" stroke-miterlimit="10" width="40" height="40"/>
<rect x="640" y="320" fill="#2C3E50" stroke="#2C3E50" stroke-width="2" stroke-miterlimit="10" width="40" height="40"/>
<rect x="640" y="480" fill="#2C3E50" stroke="#2C3E50" stroke-width="2" stroke-miterlimit="10" width="40" height="40"/>
<rect x="640" y="560" fill="#2C3E50" stroke="#2C3E50" stroke-width="2" stroke-miterlimit="10" width="40" height="40"/>
<rect x="680" fill="#2C3E50" stroke="#2C3E50" stroke-width="2" stroke-miterlimit="10" width="39" height="40"/>
<rect x="680" y="40" fill="#2C3E50" stroke="#2C3E50" stroke-width="2" stroke-miterlimit="10" width="39" height="40"/>
<rect x="680" y="80" fill="#2C3E50" stroke="#2C3E50" stroke-width="2" stroke-miterlimit="10" width="39" height="40"/>
<rect x="680" y="160" fill="#2C3E50" stroke="#2C3E50" stroke-width="2" stroke-miterlimit="10" width="39" height="40"/>
<rect x="680" y="240" fill="#2C3E50" stroke="#2C3E50" stroke-width="2" stroke-miterlimit="10" width="39" height="40"/>
<rect x="680" y="280" fill="#2C3E50" stroke="#2C3E50" stroke-width="2" stroke-miterlimit="10" width="39" height="40"/>
<rect x="680" y="400" fill="#2C3E50" stroke="#2C3E50" stroke-width="2" stroke-miterlimit="10" width="39" height="40"/>
<rect x="680" y="480" fill="#2C3E50" stroke="#2C3E50" stroke-width="2" stroke-miterlimit="10" width="39" height="40"/>
<rect x="680" y="560" fill="#2C3E50" stroke="#2C3E50" stroke-width="2" stroke-miterlimit="10" width="39" height="40"/>
<rect x="719" fill="#2C3E50" stroke="#2C3E50" stroke-width="2" stroke-miterlimit="10" width="41" height="40"/>
<rect x="719" y="360" fill="#2C3E50" stroke="#2C3E50" stroke-width="2" stroke-miterlimit="10" width="41" height="40"/>
<rect x="719" y="400" fill="#2C3E50" stroke="#2C3E50" stroke-width="2" stroke-miterlimit="10" width="41" height="40"/>
<rect x="719" y="560" fill="#2C3E50" stroke="#2C3E50" stroke-width="2" stroke-miterlimit="10" width="41" height="40"/>
<rect x="760" fill="#2C3E50" stroke="#2C3E50" stroke-width="2" stroke-miterlimit="10" width="40" height="40"/>
<rect x="760" y="40" fill="#2C3E50" stroke="#2C3E50" stroke-width="2" stroke-miterlimit="10" width="40" height="40"/>
<rect x="760" y="80" fill="#2C3E50" stroke="#2C3E50" stroke-width="2" stroke-miterlimit="10" width="40" height="40"/>
<rect x="760" y="120" fill="#2C3E50" stroke="#2C3E50" stroke-width="2" stroke-miterlimit="10" width="40" height="40"/>
<rect x="760" y="160" fill="#2C3E50" stroke="#2C3E50" stroke-width="2" stroke-miterlimit="10" width="40" height="40"/>
<rect x="760" y="200" fill="#2C3E50" stroke="#2C3E50" stroke-width="2" stroke-miterlimit="10" width="40" height="40"/>
<rect x="760" y="240" fill="#2C3E50" stroke="#2C3E50" stroke-width="2" stroke-miterlimit="10" width="40" height="40"/>
<rect x="760" y="280" fill="#2C3E50" stroke="#2C3E50" stroke-width="2" stroke-miterlimit="10" width="40" height="40"/>
<rect x="760" y="320" fill="#2C3E50" stroke="#2C3E50" stroke-width="2" stroke-miterlimit="10" width="40" height="40"/>
<rect x="760" y="360" fill="#2C3E50" stroke="#2C3E50" stroke-width="2" stroke-miterlimit="10" width="40" height="40"/>
<rect x="760" y="400" fill="#2C3E50" stroke="#2C3E50" stroke-width="2" stroke-miterlimit="10" width="40" height="40"/>
<rect x="760" y="440" fill="#2C3E50" stroke="#2C3E50" stroke-width="2" stroke-miterlimit="10" width="40" height="40"/>
<rect x="760" y="480" fill="#2C3E50" stroke="#2C3E50" stroke-width="2" stroke-miterlimit="10" width="40" height="40"/>
<rect x="760" y="520" fill="#2C3E50" stroke="#2C3E50" stroke-width="2" stroke-miterlimit="10" width="40" height="40"/>
<rect x="760" y="560" fill="#2C3E50" stroke="#2C3E50" stroke-width="2" stroke-miterlimit="10" width="40" height="40"/>
</svg>
