<?xml version="1.0" encoding="utf-8"?>
<!-- Generator: Adobe Illustrator 16.0.4, SVG Export Plug-In . SVG Version: 6.00 Build 0)  -->
<!DOCTYPE svg PUBLIC "-//W3C//DTD SVG 1.1//EN" "http://www.w3.org/Graphics/SVG/1.1/DTD/svg11.dtd">
<svg version="1.1" id="Ebene_2" xmlns="http://www.w3.org/2000/svg" xmlns:xlink="http://www.w3.org/1999/xlink" x="0px" y="0px"
	 width="800px" height="600px" viewBox="0 0 800 600" enable-background="new 0 0 800 600" xml:space="preserve">
<rect x="0.5" y="0.5" fill="#2C3E50" stroke="#2C3E50" stroke-miterlimit="10" width="40" height="40"/>
<rect x="0.5" y="40.5" fill="#2C3E50" stroke="#2C3E50" stroke-miterlimit="10" width="40" height="40"/>
<rect x="0.5" y="80.5" fill="#2C3E50" stroke="#2C3E50" stroke-miterlimit="10" width="40" height="40"/>
<rect x="0.5" y="120.5" fill="#2C3E50" stroke="#2C3E50" stroke-miterlimit="10" width="40" height="40"/>
<rect x="0.5" y="160.5" fill="#2C3E50" stroke="#2C3E50" stroke-miterlimit="10" width="40" height="40"/>
<rect x="0.5" y="200.5" fill="#2C3E50" stroke="#2C3E50" stroke-miterlimit="10" width="40" height="40"/>
<rect x="0.5" y="240.5" fill="#2C3E50" stroke="#2C3E50" stroke-miterlimit="10" width="40" height="40"/>
<rect x="0.5" y="280.5" fill="#2C3E50" stroke="#2C3E50" stroke-miterlimit="10" width="40" height="40"/>
<rect x="0.5" y="320.5" fill="#2C3E50" stroke="#2C3E50" stroke-miterlimit="10" width="40" height="40"/>
<rect x="0.5" y="360.5" fill="#2C3E50" stroke="#2C3E50" stroke-miterlimit="10" width="40" height="40"/>
<rect x="0.5" y="400.5" fill="#2C3E50" stroke="#2C3E50" stroke-miterlimit="10" width="40" height="40"/>
<rect x="0.5" y="440.5" fill="#2C3E50" stroke="#2C3E50" stroke-miterlimit="10" width="40" height="40"/>
<rect x="0.5" y="480.5" fill="#2C3E50" stroke="#2C3E50" stroke-miterlimit="10" width="40" height="40"/>
<rect x="0.5" y="520.5" fill="#2C3E50" stroke="#2C3E50" stroke-miterlimit="10" width="40" height="40"/>
<rect x="0.5" y="560.5" fill="#2C3E50" stroke="#2C3E50" stroke-miterlimit="10" width="40" height="41"/>
<rect x="40.5" y="0.5" fill="#2C3E50" stroke="#2C3E50" stroke-miterlimit="10" width="40" height="40"/>
<rect x="40.5" y="40.5" fill="#2C3E50" stroke="#2C3E50" stroke-miterlimit="10" width="40" height="40"/>
<rect x="40.5" y="200.5" fill="#2C3E50" stroke="#2C3E50" stroke-miterlimit="10" width="40" height="40"/>
<rect x="40.5" y="360.5" fill="#2C3E50" stroke="#2C3E50" stroke-miterlimit="10" width="40" height="40"/>
<rect x="40.5" y="520.5" fill="#2C3E50" stroke="#2C3E50" stroke-miterlimit="10" width="40" height="40"/>
<rect x="40.5" y="560.5" fill="#2C3E50" stroke="#2C3E50" stroke-miterlimit="10" width="40" height="41"/>
<rect x="80.5" y="0.5" fill="#2C3E50" stroke="#2C3E50" stroke-miterlimit="10" width="40" height="40"/>
<rect x="80.5" y="120.5" fill="#2C3E50" stroke="#2C3E50" stroke-miterlimit="10" width="40" height="40"/>
<rect x="80.5" y="200.5" fill="#2C3E50" stroke="#2C3E50" stroke-miterlimit="10" width="40" height="40"/>
<rect x="80.5" y="280.5" fill="#2C3E50" stroke="#2C3E50" stroke-miterlimit="10" width="40" height="40"/>
<rect x="80.5" y="440.5" fill="#2C3E50" stroke="#2C3E50" stroke-miterlimit="10" width="40" height="40"/>
<rect x="80.5" y="560.5" fill="#2C3E50" stroke="#2C3E50" stroke-miterlimit="10" width="40" height="41"/>
<rect x="120.5" y="0.5" fill="#2C3E50" stroke="#2C3E50" stroke-miterlimit="10" width="40" height="40"/>
<rect x="120.5" y="80.5" fill="#2C3E50" stroke="#2C3E50" stroke-miterlimit="10" width="40" height="40"/>
<rect x="120.5" y="120.5" fill="#2C3E50" stroke="#2C3E50" stroke-miterlimit="10" width="40" height="40"/>
<rect x="120.5" y="200.5" fill="#2C3E50" stroke="#2C3E50" stroke-miterlimit="10" width="40" height="40"/>
<rect x="120.5" y="240.5" fill="#2C3E50" stroke="#2C3E50" stroke-miterlimit="10" width="40" height="40"/>
<rect x="120.5" y="280.5" fill="#2C3E50" stroke="#2C3E50" stroke-miterlimit="10" width="40" height="40"/>
<rect x="120.5" y="320.5" fill="#2C3E50" stroke="#2C3E50" stroke-miterlimit="10" width="40" height="40"/>
<rect x="120.5" y="360.5" fill="#2C3E50" stroke="#2C3E50" stroke-miterlimit="10" width="40" height="40"/>
<rect x="120.5" y="400.5" fill="#2C3E50" stroke="#2C3E50" stroke-miterlimit="10" width="40" height="40"/>
<rect x="120.5" y="440.5" fill="#2C3E50" stroke="#2C3E50" stroke-miterlimit="10" width="40" height="40"/>
<rect x="120.5" y="520.5" fill="#2C3E50" stroke="#2C3E50" stroke-miterlimit="10" width="40" height="40"/>
<rect x="120.5" y="560.5" fill="#2C3E50" stroke="#2C3E50" stroke-miterlimit="10" width="40" height="41"/>
<rect x="160.5" y="0.5" fill="#2C3E50" stroke="#2C3E50" stroke-miterlimit="10" width="40" height="40"/>
<rect x="160.5" y="120.5" fill="#2C3E50" stroke="#2C3E50" stroke-miterlimit="10" width="40" height="40"/>
<rect x="160.5" y="280.5" fill="#2C3E50" stroke="#2C3E50" stroke-miterlimit="10" width="40" height="40"/>
<rect x="160.5" y="320.5" fill="#2C3E50" stroke="#2C3E50" stroke-miterlimit="10" width="40" height="40"/>
<rect x="160.5" y="520.5" fill="#2C3E50" stroke="#2C3E50" stroke-miterlimit="10" width="40" height="40"/>
<rect x="160.5" y="560.5" fill="#2C3E50" stroke="#2C3E50" stroke-miterlimit="10" width="40" height="41"/>
<rect x="200.5" y="0.5" fill="#2C3E50" stroke="#2C3E50" stroke-miterlimit="10" width="41" height="40"/>
<rect x="200.5" y="40.5" fill="#2C3E50" stroke="#2C3E50" stroke-miterlimit="10" width="41" height="40"/>
<rect x="200.5" y="120.5" fill="#2C3E50" stroke="#2C3E50" stroke-miterlimit="10" width="41" height="40"/>
<rect x="200.5" y="160.5" fill="#2C3E50" stroke="#2C3E50" stroke-miterlimit="10" width="41" height="40"/>
<rect x="200.5" y="200.5" fill="#2C3E50" stroke="#2C3E50" stroke-miterlimit="10" width="41" height="40"/>
<rect x="200.5" y="320.5" fill="#2C3E50" stroke="#2C3E50" stroke-miterlimit="10" width="41" height="40"/>
<rect x="200.5" y="400.5" fill="#2C3E50" stroke="#2C3E50" stroke-miterlimit="10" width="41" height="40"/>
<rect x="200.5" y="440.5" fill="#2C3E50" stroke="#2C3E50" stroke-miterlimit="10" width="41" height="40"/>
<rect x="200.5" y="560.5" fill="#2C3E50" stroke="#2C3E50" stroke-miterlimit="10" width="41" height="41"/>
<rect x="241.5" y="0.5" fill="#2C3E50" stroke="#2C3E50" stroke-miterlimit="10" width="40" height="40"/>
<rect x="241.5" y="200.5" fill="#2C3E50" stroke="#2C3E50" stroke-miterlimit="10" width="40" height="40"/>
<rect x="241.5" y="280.5" fill="#2C3E50" stroke="#2C3E50" stroke-miterlimit="10" width="40" height="40"/>
<rect x="241.5" y="320.5" fill="#2C3E50" stroke="#2C3E50" stroke-miterlimit="10" width="40" height="40"/>
<rect x="241.5" y="400.5" fill="#2C3E50" stroke="#2C3E50" stroke-miterlimit="10" width="40" height="40"/>
<rect x="241.5" y="440.5" fill="#2C3E50" stroke="#2C3E50" stroke-miterlimit="10" width="40" height="40"/>
<rect x="241.5" y="480.5" fill="#2C3E50" stroke="#2C3E50" stroke-miterlimit="10" width="40" height="40"/>
<rect x="241.5" y="560.5" fill="#2C3E50" stroke="#2C3E50" stroke-miterlimit="10" width="40" height="41"/>
<rect x="281.5" y="0.5" fill="#2C3E50" stroke="#2C3E50" stroke-miterlimit="10" width="40" height="40"/>
<rect x="281.5" y="80.5" fill="#2C3E50" stroke="#2C3E50" stroke-miterlimit="10" width="40" height="40"/>
<rect x="281.5" y="120.5" fill="#2C3E50" stroke="#2C3E50" stroke-miterlimit="10" width="40" height="40"/>
<rect x="281.5" y="160.5" fill="#2C3E50" stroke="#2C3E50" stroke-miterlimit="10" width="40" height="40"/>
<rect x="281.5" y="200.5" fill="#2C3E50" stroke="#2C3E50" stroke-miterlimit="10" width="40" height="40"/>
<rect x="281.5" y="280.5" fill="#2C3E50" stroke="#2C3E50" stroke-miterlimit="10" width="40" height="40"/>
<rect x="281.5" y="400.5" fill="#2C3E50" stroke="#2C3E50" stroke-miterlimit="10" width="40" height="40"/>
<rect x="281.5" y="560.5" fill="#2C3E50" stroke="#2C3E50" stroke-miterlimit="10" width="40" height="41"/>
<rect x="321.5" y="0.5" fill="#2C3E50" stroke="#2C3E50" stroke-miterlimit="10" width="40" height="40"/>
<rect x="321.5" y="80.5" fill="#2C3E50" stroke="#2C3E50" stroke-miterlimit="10" width="40" height="40"/>
<rect x="321.5" y="200.5" fill="#2C3E50" stroke="#2C3E50" stroke-miterlimit="10" width="40" height="40"/>
<rect x="321.5" y="280.5" fill="#2C3E50" stroke="#2C3E50" stroke-miterlimit="10" width="40" height="40"/>
<rect x="321.5" y="360.5" fill="#2C3E50" stroke="#2C3E50" stroke-miterlimit="10" width="40" height="40"/>
<rect x="321.5" y="400.5" fill="#2C3E50" stroke="#2C3E50" stroke-miterlimit="10" width="40" height="40"/>
<rect x="321.5" y="480.5" fill="#2C3E50" stroke="#2C3E50" stroke-miterlimit="10" width="40" height="40"/>
<rect x="321.5" y="520.5" fill="#2C3E50" stroke="#2C3E50" stroke-miterlimit="10" width="40" height="40"/>
<rect x="321.5" y="560.5" fill="#2C3E50" stroke="#2C3E50" stroke-miterlimit="10" width="40" height="41"/>
<rect x="361.5" y="0.5" fill="#2C3E50" stroke="#2C3E50" stroke-miterlimit="10" width="39" height="40"/>
<rect x="361.5" y="80.5" fill="#2C3E50" stroke="#2C3E50" stroke-miterlimit="10" width="39" height="40"/>
<rect x="361.5" y="120.5" fill="#2C3E50" stroke="#2C3E50" stroke-miterlimit="10" width="39" height="40"/>
<rect x="361.5" y="200.5" fill="#2C3E50" stroke="#2C3E50" stroke-miterlimit="10" width="39" height="40"/>
<rect x="361.5" y="360.5" fill="#2C3E50" stroke="#2C3E50" stroke-miterlimit="10" width="39" height="40"/>
<rect x="361.5" y="480.5" fill="#2C3E50" stroke="#2C3E50" stroke-miterlimit="10" width="39" height="40"/>
<rect x="361.5" y="520.5" fill="#2C3E50" stroke="#2C3E50" stroke-miterlimit="10" width="39" height="40"/>
<rect x="361.5" y="560.5" fill="#2C3E50" stroke="#2C3E50" stroke-miterlimit="10" width="39" height="41"/>
<rect x="400.5" y="0.5" fill="#2C3E50" stroke="#2C3E50" stroke-miterlimit="10" width="40" height="40"/>
<rect x="400.5" y="80.5" fill="#2C3E50" stroke="#2C3E50" stroke-miterlimit="10" width="40" height="40"/>
<rect x="400.5" y="200.5" fill="#2C3E50" stroke="#2C3E50" stroke-miterlimit="10" width="40" height="40"/>
<rect x="400.5" y="240.5" fill="#2C3E50" stroke="#2C3E50" stroke-miterlimit="10" width="40" height="40"/>
<rect x="400.5" y="280.5" fill="#2C3E50" stroke="#2C3E50" stroke-miterlimit="10" width="40" height="40"/>
<rect x="400.5" y="320.5" fill="#2C3E50" stroke="#2C3E50" stroke-miterlimit="10" width="40" height="40"/>
<rect x="400.5" y="360.5" fill="#2C3E50" stroke="#2C3E50" stroke-miterlimit="10" width="40" height="40"/>
<rect x="400.5" y="440.5" fill="#2C3E50" stroke="#2C3E50" stroke-miterlimit="10" width="40" height="40"/>
<rect x="400.5" y="480.5" fill="#2C3E50" stroke="#2C3E50" stroke-miterlimit="10" width="40" height="40"/>
<rect x="400.5" y="560.5" fill="#2C3E50" stroke="#2C3E50" stroke-miterlimit="10" width="40" height="41"/>
<rect x="440.5" y="0.5" fill="#2C3E50" stroke="#2C3E50" stroke-miterlimit="10" width="40" height="40"/>
<rect x="440.5" y="80.5" fill="#2C3E50" stroke="#2C3E50" stroke-miterlimit="10" width="40" height="40"/>
<rect x="440.5" y="120.5" fill="#2C3E50" stroke="#2C3E50" stroke-miterlimit="10" width="40" height="40"/>
<rect x="440.5" y="320.5" fill="#2C3E50" stroke="#2C3E50" stroke-miterlimit="10" width="40" height="40"/>
<rect x="440.5" y="440.5" fill="#2C3E50" stroke="#2C3E50" stroke-miterlimit="10" width="40" height="40"/>
<rect x="440.5" y="560.5" fill="#2C3E50" stroke="#2C3E50" stroke-miterlimit="10" width="40" height="41"/>
<rect x="480.5" y="0.5" fill="#2C3E50" stroke="#2C3E50" stroke-miterlimit="10" width="40" height="40"/>
<rect x="480.5" y="80.5" fill="#2C3E50" stroke="#2C3E50" stroke-miterlimit="10" width="40" height="40"/>
<rect x="480.5" y="120.5" fill="#2C3E50" stroke="#2C3E50" stroke-miterlimit="10" width="40" height="40"/>
<rect x="480.5" y="200.5" fill="#2C3E50" stroke="#2C3E50" stroke-miterlimit="10" width="40" height="40"/>
<rect x="480.5" y="240.5" fill="#2C3E50" stroke="#2C3E50" stroke-miterlimit="10" width="40" height="40"/>
<rect x="480.5" y="320.5" fill="#2C3E50" stroke="#2C3E50" stroke-miterlimit="10" width="40" height="40"/>
<rect x="480.5" y="400.5" fill="#2C3E50" stroke="#2C3E50" stroke-miterlimit="10" width="40" height="40"/>
<rect x="480.5" y="440.5" fill="#2C3E50" stroke="#2C3E50" stroke-miterlimit="10" width="40" height="40"/>
<rect x="480.5" y="520.5" fill="#2C3E50" stroke="#2C3E50" stroke-miterlimit="10" width="40" height="40"/>
<rect x="480.5" y="560.5" fill="#2C3E50" stroke="#2C3E50" stroke-miterlimit="10" width="40" height="41"/>
<rect x="520.5" y="0.5" fill="#2C3E50" stroke="#2C3E50" stroke-miterlimit="10" width="40" height="40"/>
<rect x="520.5" y="80.5" fill="#2C3E50" stroke="#2C3E50" stroke-miterlimit="10" width="40" height="40"/>
<rect x="520.5" y="120.5" fill="#2C3E50" stroke="#2C3E50" stroke-miterlimit="10" width="40" height="40"/>
<rect x="520.5" y="200.5" fill="#2C3E50" stroke="#2C3E50" stroke-miterlimit="10" width="40" height="40"/>
<rect x="520.5" y="240.5" fill="#2C3E50" stroke="#2C3E50" stroke-miterlimit="10" width="40" height="40"/>
<rect x="520.5" y="320.5" fill="#2C3E50" stroke="#2C3E50" stroke-miterlimit="10" width="40" height="40"/>
<rect x="520.5" y="520.5" fill="#2C3E50" stroke="#2C3E50" stroke-miterlimit="10" width="40" height="40"/>
<rect x="520.5" y="560.5" fill="#2C3E50" stroke="#2C3E50" stroke-miterlimit="10" width="40" height="41"/>
<rect x="560.5" y="0.5" fill="#2C3E50" stroke="#2C3E50" stroke-miterlimit="10" width="40" height="40"/>
<rect x="560.5" y="120.5" fill="#2C3E50" stroke="#2C3E50" stroke-miterlimit="10" width="40" height="40"/>
<rect x="560.5" y="240.5" fill="#2C3E50" stroke="#2C3E50" stroke-miterlimit="10" width="40" height="40"/>
<rect x="560.5" y="320.5" fill="#2C3E50" stroke="#2C3E50" stroke-miterlimit="10" width="40" height="40"/>
<rect x="560.5" y="360.5" fill="#2C3E50" stroke="#2C3E50" stroke-miterlimit="10" width="40" height="40"/>
<rect x="560.5" y="400.5" fill="#2C3E50" stroke="#2C3E50" stroke-miterlimit="10" width="40" height="40"/>
<rect x="560.5" y="440.5" fill="#2C3E50" stroke="#2C3E50" stroke-miterlimit="10" width="40" height="40"/>
<rect x="560.5" y="560.5" fill="#2C3E50" stroke="#2C3E50" stroke-miterlimit="10" width="40" height="41"/>
<rect x="600.5" y="0.5" fill="#2C3E50" stroke="#2C3E50" stroke-miterlimit="10" width="41" height="40"/>
<rect x="600.5" y="40.5" fill="#2C3E50" stroke="#2C3E50" stroke-miterlimit="10" width="41" height="40"/>
<rect x="600.5" y="120.5" fill="#2C3E50" stroke="#2C3E50" stroke-miterlimit="10" width="41" height="40"/>
<rect x="600.5" y="160.5" fill="#2C3E50" stroke="#2C3E50" stroke-miterlimit="10" width="41" height="40"/>
<rect x="600.5" y="200.5" fill="#2C3E50" stroke="#2C3E50" stroke-miterlimit="10" width="41" height="40"/>
<rect x="600.5" y="240.5" fill="#2C3E50" stroke="#2C3E50" stroke-miterlimit="10" width="41" height="40"/>
<rect x="600.5" y="320.5" fill="#2C3E50" stroke="#2C3E50" stroke-miterlimit="10" width="41" height="40"/>
<rect x="600.5" y="400.5" fill="#2C3E50" stroke="#2C3E50" stroke-miterlimit="10" width="41" height="40"/>
<rect x="600.5" y="440.5" fill="#2C3E50" stroke="#2C3E50" stroke-miterlimit="10" width="41" height="40"/>
<rect x="600.5" y="480.5" fill="#2C3E50" stroke="#2C3E50" stroke-miterlimit="10" width="41" height="40"/>
<rect x="600.5" y="560.5" fill="#2C3E50" stroke="#2C3E50" stroke-miterlimit="10" width="41" height="41"/>
<rect x="641.5" y="0.5" fill="#2C3E50" stroke="#2C3E50" stroke-miterlimit="10" width="40" height="40"/>
<rect x="641.5" y="120.5" fill="#2C3E50" stroke="#2C3E50" stroke-miterlimit="10" width="40" height="40"/>
<rect x="641.5" y="320.5" fill="#2C3E50" stroke="#2C3E50" stroke-miterlimit="10" width="40" height="40"/>
<rect x="641.5" y="560.5" fill="#2C3E50" stroke="#2C3E50" stroke-miterlimit="10" width="40" height="41"/>
<rect x="681.5" y="0.5" fill="#2C3E50" stroke="#2C3E50" stroke-miterlimit="10" width="40" height="40"/>
<rect x="681.5" y="80.5" fill="#2C3E50" stroke="#2C3E50" stroke-miterlimit="10" width="40" height="40"/>
<rect x="681.5" y="120.5" fill="#2C3E50" stroke="#2C3E50" stroke-miterlimit="10" width="40" height="40"/>
<rect x="681.5" y="200.5" fill="#2C3E50" stroke="#2C3E50" stroke-miterlimit="10" width="40" height="40"/>
<rect x="681.5" y="240.5" fill="#2C3E50" stroke="#2C3E50" stroke-miterlimit="10" width="40" height="40"/>
<rect x="681.5" y="280.5" fill="#2C3E50" stroke="#2C3E50" stroke-miterlimit="10" width="40" height="40"/>
<rect x="681.5" y="320.5" fill="#2C3E50" stroke="#2C3E50" stroke-miterlimit="10" width="40" height="40"/>
<rect x="681.5" y="400.5" fill="#2C3E50" stroke="#2C3E50" stroke-miterlimit="10" width="40" height="40"/>
<rect x="681.5" y="440.5" fill="#2C3E50" stroke="#2C3E50" stroke-miterlimit="10" width="40" height="40"/>
<rect x="681.5" y="480.5" fill="#2C3E50" stroke="#2C3E50" stroke-miterlimit="10" width="40" height="40"/>
<rect x="681.5" y="560.5" fill="#2C3E50" stroke="#2C3E50" stroke-miterlimit="10" width="40" height="41"/>
<rect x="721.5" y="0.5" fill="#2C3E50" stroke="#2C3E50" stroke-miterlimit="10" width="40" height="40"/>
<rect x="721.5" y="200.5" fill="#2C3E50" stroke="#2C3E50" stroke-miterlimit="10" width="40" height="40"/>
<rect x="721.5" y="560.5" fill="#2C3E50" stroke="#2C3E50" stroke-miterlimit="10" width="40" height="41"/>
<rect x="761.5" y="0.5" fill="#2C3E50" stroke="#2C3E50" stroke-miterlimit="10" width="40" height="40"/>
<rect x="761.5" y="40.5" fill="#2C3E50" stroke="#2C3E50" stroke-miterlimit="10" width="40" height="40"/>
<rect x="761.5" y="80.5" fill="#2C3E50" stroke="#2C3E50" stroke-miterlimit="10" width="40" height="40"/>
<rect x="761.5" y="120.5" fill="#2C3E50" stroke="#2C3E50" stroke-miterlimit="10" width="40" height="40"/>
<rect x="761.5" y="160.5" fill="#2C3E50" stroke="#2C3E50" stroke-miterlimit="10" width="40" height="40"/>
<rect x="761.5" y="200.5" fill="#2C3E50" stroke="#2C3E50" stroke-miterlimit="10" width="40" height="40"/>
<rect x="761.5" y="240.5" fill="#2C3E50" stroke="#2C3E50" stroke-miterlimit="10" width="40" height="40"/>
<rect x="761.5" y="280.5" fill="#2C3E50" stroke="#2C3E50" stroke-miterlimit="10" width="40" height="40"/>
<rect x="761.5" y="320.5" fill="#2C3E50" stroke="#2C3E50" stroke-miterlimit="10" width="40" height="40"/>
<rect x="761.5" y="360.5" fill="#2C3E50" stroke="#2C3E50" stroke-miterlimit="10" width="40" height="40"/>
<rect x="761.5" y="400.5" fill="#2C3E50" stroke="#2C3E50" stroke-miterlimit="10" width="40" height="40"/>
<rect x="761.5" y="440.5" fill="#2C3E50" stroke="#2C3E50" stroke-miterlimit="10" width="40" height="40"/>
<rect x="761.5" y="480.5" fill="#2C3E50" stroke="#2C3E50" stroke-miterlimit="10" width="40" height="40"/>
<rect x="761.5" y="520.5" fill="#2C3E50" stroke="#2C3E50" stroke-miterlimit="10" width="40" height="40"/>
<rect x="761.5" y="560.5" fill="#2C3E50" stroke="#2C3E50" stroke-miterlimit="10" width="40" height="41"/>
</svg>
