<?xml version="1.0" encoding="utf-8"?>
<!-- Generator: Adobe Illustrator 16.0.0, SVG Export Plug-In . SVG Version: 6.00 Build 0)  -->
<!DOCTYPE svg PUBLIC "-//W3C//DTD SVG 1.1//EN" "http://www.w3.org/Graphics/SVG/1.1/DTD/svg11.dtd">
<svg version="1.1" xmlns="http://www.w3.org/2000/svg" xmlns:xlink="http://www.w3.org/1999/xlink" x="0px" y="0px" width="45px"
	 height="45px" viewBox="0 0 45 45" enable-background="new 0 0 45 45" xml:space="preserve">
<g id="r" display="none">
	<path display="inline" fill="#FCC149" d="M22.555,22.287l22.163-1.678C43.764,9.193,34.215,0.248,22.555,0.248
		c-12.293,0-22.252,9.958-22.252,22.252c0,12.294,9.958,22.252,22.252,22.252c11.715,0,21.319-9.045,22.186-20.549L22.555,22.287z
		 M30.209,6.645c1.536,0,2.783,1.247,2.783,2.781c0,1.535-1.247,2.782-2.783,2.782c-1.546,0-2.781-1.247-2.781-2.782
		C27.428,7.892,28.663,6.645,30.209,6.645z"/>
	<path display="inline" fill="#FCC149" d="M22.555,22.287l21.729-4.581C42.094,7.713,33.202,0.248,22.555,0.248
		c-12.293,0-22.252,9.958-22.252,22.252c0,12.294,9.958,22.252,22.252,22.252c10.713,0,19.649-7.566,21.764-17.646L22.555,22.287z
		 M30.209,6.645c1.536,0,2.783,1.247,2.783,2.781c0,1.535-1.247,2.782-2.783,2.782c-1.546,0-2.781-1.247-2.781-2.782
		C27.428,7.892,28.663,6.645,30.209,6.645z"/>
	<path display="inline" fill="#FCC149" d="M22.555,22.287l19.973-9.612C38.899,5.311,31.322,0.248,22.555,0.248
		c-12.293,0-22.252,9.958-22.252,22.252c0,12.294,9.958,22.252,22.252,22.252c8.833,0,16.466-5.141,20.06-12.606L22.555,22.287z
		 M30.209,6.645c1.536,0,2.783,1.247,2.783,2.781c0,1.535-1.247,2.782-2.783,2.782c-1.546,0-2.781-1.247-2.781-2.782
		C27.428,7.892,28.663,6.645,30.209,6.645z"/>
	<path display="inline" fill="#FCC149" d="M22.555,22.287l20.961-7.253C40.456,6.411,32.225,0.248,22.555,0.248
		c-12.293,0-22.252,9.958-22.252,22.252c0,12.294,9.958,22.252,22.252,22.252c9.735,0,18.014-6.254,21.028-14.964L22.555,22.287z
		 M30.209,6.645c1.536,0,2.783,1.247,2.783,2.781c0,1.535-1.247,2.782-2.783,2.782c-1.546,0-2.781-1.247-2.781-2.782
		C27.428,7.892,28.663,6.645,30.209,6.645z"/>
	<path display="inline" fill="#FCC149" d="M22.555,0.248c-12.293,0-22.252,9.958-22.252,22.252c0,12.294,9.958,22.252,22.252,22.252
		S44.808,34.794,44.808,22.5C44.808,10.206,34.849,0.248,22.555,0.248z M30.209,12.208c-1.546,0-2.781-1.247-2.781-2.782
		c0-1.534,1.235-2.781,2.781-2.781c1.536,0,2.783,1.247,2.783,2.781C32.992,10.961,31.745,12.208,30.209,12.208z"/>
</g>
<g id="l">
	<path fill="#FCC149" d="M0.37,24.203c0.867,11.504,10.471,20.549,22.186,20.549c12.293,0,22.252-9.958,22.252-22.252
		c0-12.294-9.959-22.252-22.252-22.252c-11.66,0-21.208,8.946-22.163,20.361l22.163,1.678L0.37,24.203z M17.684,9.426
		c0,1.535-1.235,2.782-2.781,2.782c-1.536,0-2.783-1.247-2.783-2.782c0-1.534,1.247-2.781,2.783-2.781
		C16.448,6.645,17.684,7.892,17.684,9.426z"/>
	<path display="none" fill="#FCC149" d="M0.792,27.105c2.115,10.08,11.051,17.646,21.764,17.646
		c12.293,0,22.252-9.958,22.252-22.252c0-12.294-9.959-22.252-22.252-22.252c-10.647,0-19.539,7.466-21.729,17.458l21.729,4.581
		L0.792,27.105z M17.684,9.426c0,1.535-1.235,2.782-2.781,2.782c-1.536,0-2.783-1.247-2.783-2.782c0-1.534,1.247-2.781,2.783-2.781
		C16.448,6.645,17.684,7.892,17.684,9.426z"/>
	<path display="none" fill="#FCC149" d="M2.496,32.146c3.594,7.466,11.227,12.606,20.06,12.606c12.293,0,22.252-9.958,22.252-22.252
		c0-12.294-9.959-22.252-22.252-22.252c-8.767,0-16.344,5.063-19.973,12.427l19.973,9.612L2.496,32.146z M17.684,9.426
		c0,1.535-1.235,2.782-2.781,2.782c-1.536,0-2.783-1.247-2.783-2.782c0-1.534,1.247-2.781,2.783-2.781
		C16.448,6.645,17.684,7.892,17.684,9.426z"/>
	<path display="none" fill="#FCC149" d="M1.528,29.788c3.014,8.71,11.293,14.964,21.028,14.964c12.293,0,22.252-9.958,22.252-22.252
		c0-12.294-9.959-22.252-22.252-22.252c-9.669,0-17.901,6.164-20.961,14.787l20.961,7.253L1.528,29.788z M17.684,9.426
		c0,1.535-1.235,2.782-2.781,2.782c-1.536,0-2.783-1.247-2.783-2.782c0-1.534,1.247-2.781,2.783-2.781
		C16.448,6.645,17.684,7.892,17.684,9.426z"/>
	<path display="none" fill="#FCC149" d="M0.304,22.5c0,12.294,9.959,22.252,22.252,22.252S44.809,34.794,44.809,22.5
		c0-12.294-9.959-22.252-22.252-22.252S0.304,10.206,0.304,22.5z M12.119,9.426c0-1.534,1.247-2.781,2.783-2.781
		c1.546,0,2.781,1.247,2.781,2.781c0,1.535-1.235,2.782-2.781,2.782C13.366,12.208,12.119,10.961,12.119,9.426z"/>
</g>
</svg>
