<?xml version="1.0" encoding="utf-8"?>
<!-- Generator: Adobe Illustrator 16.0.0, SVG Export Plug-In . SVG Version: 6.00 Build 0)  -->
<!DOCTYPE svg PUBLIC "-//W3C//DTD SVG 1.1//EN" "http://www.w3.org/Graphics/SVG/1.1/DTD/svg11.dtd">
<svg version="1.1" id="Ebene_1" xmlns="http://www.w3.org/2000/svg" xmlns:xlink="http://www.w3.org/1999/xlink" x="0px" y="0px"
	 width="45px" height="45px" viewBox="0 0 45 45" enable-background="new 0 0 45 45" xml:space="preserve">
<path display="none" fill="#FCC149" d="M22.555,22.287l22.163-1.678C43.764,9.193,34.215,0.248,22.555,0.248
	c-12.293,0-22.252,9.958-22.252,22.252c0,12.294,9.958,22.252,22.252,22.252c11.715,0,21.319-9.045,22.186-20.549L22.555,22.287z
	 M30.209,6.645c1.536,0,2.783,1.247,2.783,2.781c0,1.535-1.247,2.782-2.783,2.782c-1.546,0-2.781-1.247-2.781-2.782
	C27.428,7.892,28.663,6.645,30.209,6.645z"/>
<path display="none" fill="#FCC149" d="M22.555,22.287l21.729-4.581C42.094,7.713,33.202,0.248,22.555,0.248
	c-12.293,0-22.252,9.958-22.252,22.252c0,12.294,9.958,22.252,22.252,22.252c10.713,0,19.649-7.566,21.764-17.646L22.555,22.287z
	 M30.209,6.645c1.536,0,2.783,1.247,2.783,2.781c0,1.535-1.247,2.782-2.783,2.782c-1.546,0-2.781-1.247-2.781-2.782
	C27.428,7.892,28.663,6.645,30.209,6.645z"/>
<path display="none" fill="#FCC149" d="M22.555,22.287l19.973-9.612C38.899,5.311,31.322,0.248,22.555,0.248
	c-12.293,0-22.252,9.958-22.252,22.252c0,12.294,9.958,22.252,22.252,22.252c8.833,0,16.466-5.141,20.06-12.606L22.555,22.287z
	 M30.209,6.645c1.536,0,2.783,1.247,2.783,2.781c0,1.535-1.247,2.782-2.783,2.782c-1.546,0-2.781-1.247-2.781-2.782
	C27.428,7.892,28.663,6.645,30.209,6.645z"/>
<path fill="#FCC149" d="M22.555,22.287l20.961-7.253C40.456,6.411,32.225,0.248,22.555,0.248c-12.293,0-22.252,9.958-22.252,22.252
	c0,12.294,9.958,22.252,22.252,22.252c9.735,0,18.014-6.254,21.028-14.964L22.555,22.287z M30.209,6.645
	c1.536,0,2.783,1.247,2.783,2.781c0,1.535-1.247,2.782-2.783,2.782c-1.546,0-2.781-1.247-2.781-2.782
	C27.428,7.892,28.663,6.645,30.209,6.645z"/>
<path display="none" fill="#FCC149" d="M22.555,0.248c-12.293,0-22.252,9.958-22.252,22.252c0,12.294,9.958,22.252,22.252,22.252
	S44.808,34.794,44.808,22.5C44.808,10.206,34.849,0.248,22.555,0.248z M30.209,12.208c-1.546,0-2.781-1.247-2.781-2.782
	c0-1.534,1.235-2.781,2.781-2.781c1.536,0,2.783,1.247,2.783,2.781C32.992,10.961,31.745,12.208,30.209,12.208z"/>
</svg>
