<?xml version="1.0" encoding="utf-8"?>
<!-- Generator: Adobe Illustrator 16.0.4, SVG Export Plug-In . SVG Version: 6.00 Build 0)  -->
<!DOCTYPE svg PUBLIC "-//W3C//DTD SVG 1.1//EN" "http://www.w3.org/Graphics/SVG/1.1/DTD/svg11.dtd">
<svg version="1.1" id="Ebene_1" xmlns="http://www.w3.org/2000/svg" xmlns:xlink="http://www.w3.org/1999/xlink" x="0px" y="0px"
	 width="45px" height="45px" viewBox="0 0 45 45" enable-background="new 0 0 45 45" xml:space="preserve">
<path fill="#B71A4E" d="M22.897,0.921C7.784,0.921,3.376,45,3.376,45h39.041C42.417,45,38.009,0.921,22.897,0.921z M17.229,13.701
	c-1.738,0-3.148-1.411-3.148-3.149c0-1.737,1.411-3.148,3.148-3.148s3.148,1.411,3.148,3.148
	C20.378,12.29,18.967,13.701,17.229,13.701z M28.564,13.701c-1.738,0-3.149-1.411-3.149-3.149c0-1.737,1.411-3.148,3.149-3.148
	c1.737,0,3.147,1.411,3.147,3.148C31.712,12.29,30.302,13.701,28.564,13.701z"/>
<path display="none" fill="#BC413B" d="M22.897,0.921C7.784,0.921,3.376,45,3.376,45h39.041C42.417,45,38.009,0.921,22.897,0.921z
	 M17.229,14.225c-1.738,0-3.148-1.411-3.148-3.148s1.411-3.148,3.148-3.148s3.148,1.41,3.148,3.148S18.967,14.225,17.229,14.225z
	 M28.564,14.225c-1.738,0-3.149-1.411-3.149-3.148s1.411-3.148,3.149-3.148c1.737,0,3.147,1.41,3.147,3.148
	S30.302,14.225,28.564,14.225z"/>
<path display="none" fill="#283747" d="M22.897,0.921C7.784,0.921,3.376,45,3.376,45h39.041C42.417,45,38.009,0.921,22.897,0.921z
	 M17.229,14.539c-1.738,0-3.148-1.41-3.148-3.148c0-1.737,1.411-3.148,3.148-3.148s3.148,1.411,3.148,3.148
	C20.378,13.129,18.967,14.539,17.229,14.539z M28.564,14.539c-1.738,0-3.149-1.41-3.149-3.148c0-1.737,1.411-3.148,3.149-3.148
	c1.737,0,3.147,1.411,3.147,3.148C31.712,13.129,30.302,14.539,28.564,14.539z"/>
</svg>
